<?xml version="1.0" encoding="UTF-8"?>
<svg version="1.1" xmlns="http://www.w3.org/2000/svg" width="140" height="140">
<path d="M0 0 C3.57334355 2.79041996 6.81303181 5.7791279 10 9 C10.62390625 9.59039063 11.2478125 10.18078125 11.890625 10.7890625 C22.78307402 21.92683694 27.88746201 38.13006196 28.375 53.375 C27.78970793 71.9467677 22.1523056 88.22222721 8.7890625 101.4453125 C1.64971002 107.98471939 -5.98520708 112.50420672 -15 116 C-15.804375 116.32097656 -16.60875 116.64195312 -17.4375 116.97265625 C-32.86028901 122.15374943 -50.76183214 119.73842262 -65.125 112.8125 C-81.22869709 104.57865161 -92.20325487 91.93340253 -98.06640625 74.90234375 C-103.18145496 56.93789731 -101.73671736 38.66071682 -93 22 C-83.29642584 6.59685281 -69.271056 -5.46931716 -51.3125 -9.8125 C-32.99770462 -13.25766151 -15.55868202 -10.39975062 0 0 Z " fill="#F7B10F" transform="translate(106,16)"/>
<path d="M0 0 C0.75023437 -0.01933594 1.50046875 -0.03867187 2.2734375 -0.05859375 C5.87407499 0.70100918 7.19557839 1.60793836 9.625 4.4375 C10.67814719 8.30956609 11.05809146 12.20008543 11.4375 16.1875 C11.55802734 17.26644531 11.67855469 18.34539063 11.80273438 19.45703125 C12.09683457 22.11569705 12.37009804 24.7748379 12.625 27.4375 C12.76075439 26.82753174 12.89650879 26.21756348 13.03637695 25.58911133 C13.66093828 22.80726287 14.29907622 20.02869836 14.9375 17.25 C15.15083984 16.29029297 15.36417969 15.33058594 15.58398438 14.34179688 C17.69649003 5.22964562 17.69649003 5.22964562 20.625 1.4375 C23.84171915 -0.17085957 27.13691312 -0.01657048 30.625 0.4375 C33.1875 1.75 33.1875 1.75 34.625 4.4375 C34.83549532 8.17730025 34.2169352 11.75023697 33.625 15.4375 C33.50640625 16.18660645 33.3878125 16.93571289 33.265625 17.70751953 C32.42927309 22.95876407 31.54119436 28.19963415 30.625 33.4375 C31.89214844 33.37820312 33.15929687 33.31890625 34.46484375 33.2578125 C36.62475586 33.15673828 36.62475586 33.15673828 38.625 33.4375 C40.35723664 35.38098501 42.02381603 37.38470004 43.625 39.4375 C45.94265729 40.15677295 48.27595874 40.8284893 50.625 41.4375 C53.363625 43.82275403 53.59446426 45.11382119 53.9375 48.75 C53.625 52.4375 53.625 52.4375 52.6640625 55.66796875 C51.40333627 60.24165602 50.92998889 64.77267472 50.50195312 69.4765625 C49.62475417 77.66375273 46.40135147 85.04846663 40.1875 90.625 C31.59226085 96.7045594 23.06341203 97.95996666 12.625 96.4375 C5.10799916 94.34176308 -2.0619502 90.32225245 -6.265625 83.6015625 C-10.86352324 74.63242298 -13.09580611 67.49937947 -10.0625 57.625 C-9.22438621 55.19047899 -8.55498961 53.63402042 -6.80664062 51.72509766 C-4.8233028 48.55595109 -5.20823288 46.49200004 -5.51953125 42.79296875 C-5.56816818 42.14612625 -5.61680511 41.49928375 -5.66691589 40.83283997 C-5.8250783 38.76200139 -6.00504878 36.69382765 -6.1875 34.625 C-6.86363054 26.46138618 -7.4993889 18.30662906 -7.63671875 10.11328125 C-7.66080811 8.90196533 -7.68489746 7.69064941 -7.7097168 6.44262695 C-7.375 3.4375 -7.375 3.4375 -5.98901367 1.54736328 C-3.89472462 0.10724257 -2.53033977 0.00431799 0 0 Z " fill="#301F17" transform="translate(49.375,24.5625)"/>
<path d="M0 0 C3.57334355 2.79041996 6.81303181 5.7791279 10 9 C10.62390625 9.59039063 11.2478125 10.18078125 11.890625 10.7890625 C22.78307402 21.92683694 27.88746201 38.13006196 28.375 53.375 C27.78970793 71.9467677 22.1523056 88.22222721 8.7890625 101.4453125 C1.64971002 107.98471939 -5.98520708 112.50420672 -15 116 C-15.804375 116.32097656 -16.60875 116.64195312 -17.4375 116.97265625 C-32.86028901 122.15374943 -50.76183214 119.73842262 -65.125 112.8125 C-81.22869709 104.57865161 -92.20325487 91.93340253 -98.06640625 74.90234375 C-103.18145496 56.93789731 -101.73671736 38.66071682 -93 22 C-83.29642584 6.59685281 -69.271056 -5.46931716 -51.3125 -9.8125 C-32.99770462 -13.25766151 -15.55868202 -10.39975062 0 0 Z M-82.75 16.9375 C-94.52777947 32.9683665 -96.78149175 48.08764651 -94.59765625 67.59375 C-91.48404058 82.73446934 -80.98384084 96.4309201 -68.3125 104.875 C-54.31273602 113.58429724 -37.61099394 115.62404515 -21.51953125 112.15234375 C-6.18729479 108.16045498 6.59377469 98.32840408 14.9140625 84.9140625 C22.74980734 69.8987682 24.95654176 54.48904316 21 38 C16.57081182 24.01308995 6.93291418 10.38368504 -6 3 C-33.71297865 -10.5861188 -61.89484265 -6.59139547 -82.75 16.9375 Z " fill="#382618" transform="translate(106,16)"/>
<path d="M0 0 C0.98226562 -0.00257812 1.96453125 -0.00515625 2.9765625 -0.0078125 C5.375 0.125 5.375 0.125 6.375 1.125 C6.7734375 3.9453125 6.7734375 3.9453125 6.375 7.125 C4.0390625 9.2421875 4.0390625 9.2421875 1 11 C0.00226563 11.59554687 -0.99546875 12.19109375 -2.0234375 12.8046875 C-4.625 14.125 -4.625 14.125 -6.625 14.125 C-6.625 15.115 -6.625 16.105 -6.625 17.125 C-6.00625 17.351875 -5.3875 17.57875 -4.75 17.8125 C-2.625 19.125 -2.625 19.125 -1.3125 21.1875 C-0.05678971 26.55280759 -1.22935033 31.86447433 -2.625 37.125 C0.41764641 36.45231155 0.41764641 36.45231155 1.546875 34.36328125 C3.86016994 28.11083784 2.50188886 21.23980547 0.375 15.125 C1.695 14.795 3.015 14.465 4.375 14.125 C4.849375 15.259375 5.32375 16.39375 5.8125 17.5625 C7.01122083 20.88240166 7.01122083 20.88240166 8.375 22.125 C9.6125 22.2075 10.85 22.29 12.125 22.375 C16.68007164 22.85235209 18.17168459 24.92168459 21.375 28.125 C25.08500718 28.54331404 25.08500718 28.54331404 28.375 28.125 C27.40651601 36.35711388 25.91419571 40.28561905 19.5 45.54296875 C12.59546659 50.68329234 5.7157108 51.00766737 -2.625 50.125 C-10.07923855 48.2950413 -16.3854845 44.6188401 -20.90625 38.34765625 C-24.40471171 32.23784276 -25.61996505 25.24532586 -23.9609375 18.375 C-21.03085891 10.37088287 -15.76901814 5.52652776 -8.625 1.125 C-5.50870851 0.08623617 -3.2655571 -0.00861625 0 0 Z " fill="#ECC49A" transform="translate(66.625,66.875)"/>
<path d="M0 0 C3.0625 1.5 3.0625 1.5 5 4 C5.50588355 9.14314944 4.84650826 13.92095046 4 19 C3.67 19 3.34 19 3 19 C2.95101562 18.40832031 2.90203125 17.81664063 2.8515625 17.20703125 C2.43543133 12.80895528 1.95034405 9.03071103 0 5 C-2.31 5 -4.62 5 -7 5 C-6.89921097 7.62505184 -6.79731216 10.25005192 -6.69384766 12.875 C-6.60567923 15.14050245 -6.52076173 17.40613356 -6.43896484 19.671875 C-6.23649957 25.05881626 -5.994061 30.42515559 -5.53515625 35.796875 C-4.30376627 50.85272514 -4.30376627 50.85272514 -8.7734375 57.0703125 C-11.50924061 61.37441038 -11.48827841 66.53875922 -10.51953125 71.421875 C-7.95036431 79.88167331 -4.03395953 84.38881314 3.5625 88.80078125 C10.28005021 92.10572983 18.82277248 92.35675449 25.8984375 90.05859375 C30.64464738 87.78525899 34.90008215 85.32109761 38 81 C39.25856924 77.38289247 40.19393406 73.74198089 41 70 C39.4221875 70.37125 39.4221875 70.37125 37.8125 70.75 C34 71 34 71 31.0625 69.1875 C29 67 29 67 29 65 C27.741875 65.0825 26.48375 65.165 25.1875 65.25 C22.98046875 65.265625 22.98046875 65.265625 21 65 C19 63 19 63 18 61 C18.66 61 19.32 61 20 61 C19.93941406 60.19175781 19.87882812 59.38351563 19.81640625 58.55078125 C20.0494819 54.04299894 21.37222591 50.38902519 22.9375 46.1875 C23.21529297 45.41212891 23.49308594 44.63675781 23.77929688 43.83789062 C25.8412925 38.1587075 25.8412925 38.1587075 27 37 C29.67058851 36.85884839 32.32432238 36.95752893 35 37 C35.495 36.01 35.495 36.01 36 35 C36.350625 35.61875 36.70125 36.2375 37.0625 36.875 C38.9479111 39.31663834 38.9479111 39.31663834 42.5 40 C46 41 46 41 47.9375 42.6875 C49.90574698 46.97133167 49.35539065 50.80525175 48.0390625 55.23046875 C46.77833627 59.80415602 46.30498889 64.33517472 45.87695312 69.0390625 C44.99975417 77.22625273 41.77635147 84.61096663 35.5625 90.1875 C26.96726085 96.2670594 18.43841203 97.52246666 8 96 C0.48299916 93.90426308 -6.6869502 89.88475245 -10.890625 83.1640625 C-15.48852324 74.19492298 -17.72080611 67.06187947 -14.6875 57.1875 C-13.84938621 54.75297899 -13.17998961 53.19652042 -11.43164062 51.28759766 C-9.4483028 48.11845109 -9.83323288 46.05450004 -10.14453125 42.35546875 C-10.19316818 41.70862625 -10.24180511 41.06178375 -10.29191589 40.39533997 C-10.4500783 38.32450139 -10.63004878 36.25632765 -10.8125 34.1875 C-11.48863054 26.02388618 -12.1243889 17.86912906 -12.26171875 9.67578125 C-12.28580811 8.46446533 -12.30989746 7.25314941 -12.3347168 6.00512695 C-12 3 -12 3 -10.61401367 1.10986328 C-7.40686312 -1.09550753 -3.70576824 -0.56462668 0 0 Z " fill="#39210F" transform="translate(54,25)"/>
<path d="M0 0 C0.33 0 0.66 0 1 0 C2.93461266 17.92868762 2.93461266 17.92868762 -0.375 22.8125 C-1.24097184 23.88237103 -2.11436385 24.94634927 -3 26 C-3.91666667 28.41666667 -3.91666667 28.41666667 -4 31 C-4.061875 31.64453125 -4.12375 32.2890625 -4.1875 32.953125 C-4.54807776 39.39845247 -2.62941851 44.20376357 0 50 C0.31195313 50.90234375 0.62390625 51.8046875 0.9453125 52.734375 C1.29335938 53.48203125 1.64140625 54.2296875 2 55 C3.485 55.495 3.485 55.495 5 56 C5 56.66 5 57.32 5 58 C5.639375 58.2475 6.27875 58.495 6.9375 58.75 C10 60 10 60 11.7734375 61.0234375 C16.81365201 63.746312 21.44358564 64.3995934 27.125 64.4375 C28.12817261 64.45224365 28.12817261 64.45224365 29.15161133 64.46728516 C36.44876145 64.34319314 42.29205404 61.46708815 48 57 C55.66582621 48.87813314 56.42869429 38.03072137 57.5703125 27.44140625 C58 24 58 24 59 21 C59.48961091 16.02890606 59.48961091 16.02890606 57.375 11.6875 C55.03644553 9.84142063 55.03644553 9.84142063 52 9.0625 C49 8 49 8 47.1875 5.375 C45.27638835 2.79867948 45.27638835 2.79867948 42.75390625 2.67578125 C40.48314985 2.68640882 38.25979935 2.7827116 36 3 C36.33 2.01 36.66 1.02 37 0 C40.3 0.33 43.6 0.66 47 1 C47 1.66 47 2.32 47 3 C48.65 2.01 50.3 1.02 52 0 C51.7215625 0.928125 51.7215625 0.928125 51.4375 1.875 C50.76313824 4.04160178 50.76313824 4.04160178 52 6 C51.67 6.66 51.34 7.32 51 8 C52.3303125 7.87625 52.3303125 7.87625 53.6875 7.75 C57 8 57 8 59.875 9.375 C63.06992512 13.3216722 62.42009114 17.10827202 62 22 C61.34 22 60.68 22 60 22 C60.020625 22.969375 60.04125 23.93875 60.0625 24.9375 C60 28 60 28 59 29 C58.92741054 31.18639453 58.91626217 33.37500389 58.9375 35.5625 C58.94652344 36.76003906 58.95554687 37.95757812 58.96484375 39.19140625 C58.97644531 40.11824219 58.98804687 41.04507813 59 42 C58.34 42 57.68 42 57 42 C57 43.98 57 45.96 57 48 C58.32 48 59.64 48 61 48 C61 50.64 61 53.28 61 56 C61.763125 55.690625 62.52625 55.38125 63.3125 55.0625 C65.18789677 54.32106407 67.08684652 53.63771783 69 53 C69 52.01 69 51.02 69 50 C69.99 50 70.98 50 72 50 C72 49.34 72 48.68 72 48 C72.66 48 73.32 48 74 48 C74 46.68 74 45.36 74 44 C74.66 44 75.32 44 76 44 C76 42.68 76 41.36 76 40 C77.32 39.67 78.64 39.34 80 39 C76.91472093 48.2558372 69.84648527 56.35053061 62 62 C61.23429687 62.56332031 60.46859375 63.12664062 59.6796875 63.70703125 C45.8766547 73.26452481 30.24002938 74.98811964 13.87011719 72.70263672 C0.41010077 70.18608106 -9.35084465 62.2305369 -19 53 C-17.02 52.505 -17.02 52.505 -15 52 C-15 52.66 -15 53.32 -15 54 C-14.34 54 -13.68 54 -13 54 C-13 53.34 -13 52.68 -13 52 C-12.01 51.34 -11.02 50.68 -10 50 C-7.06733735 43.15712048 -6.96089648 36.31545317 -7.0625 29 C-7.10778327 21.95090386 -7.01985317 15.47620346 -2 10 C-1.67 10.33 -1.34 10.66 -1 11 C-0.67 7.37 -0.34 3.74 0 0 Z " fill="#EFAE15" transform="translate(43,56)"/>
<path d="M0 0 C-0.99 0.66 -1.98 1.32 -3 2 C-3.495 1.01 -3.495 1.01 -4 0 C-10.05602241 0.05844462 -10.05602241 0.05844462 -15.0625 2.9375 C-16.13793431 4.92586031 -16.13793431 4.92586031 -16 7 C-16.66 7 -17.32 7 -18 7 C-17.95875 8.19625 -17.9175 9.3925 -17.875 10.625 C-17.875 18.80527286 -18.63662415 27.48186576 -22 35 C-22.33 35 -22.66 35 -23 35 C-22.56223619 29.68923378 -21.94993425 24.48450047 -20.9375 19.25 C-19.43410383 12.55615428 -19.43410383 12.55615428 -21 6.125 C-24.12939738 4.36471397 -27.50300285 4.28085946 -31 5 C-34.45697098 7.36573435 -35.01313746 10.72494002 -36.0625 14.625 C-36.40152344 15.86894531 -36.74054688 17.11289062 -37.08984375 18.39453125 C-37.83837428 21.35974018 -38.5124432 24.31724194 -39.125 27.3125 C-39.41375 28.529375 -39.7025 29.74625 -40 31 C-40.99 31.495 -40.99 31.495 -42 32 C-42.06993164 31.2886792 -42.13986328 30.5773584 -42.21191406 29.84448242 C-42.53921907 26.62326445 -42.89425639 23.40569604 -43.25 20.1875 C-43.35957031 19.06794922 -43.46914063 17.94839844 -43.58203125 16.79492188 C-43.70449219 15.72177734 -43.82695313 14.64863281 -43.953125 13.54296875 C-44.05786133 12.55321045 -44.16259766 11.56345215 -44.27050781 10.54370117 C-45.16755389 7.41574832 -46.20693205 6.58131626 -49 5 C-51.28747032 4.56728578 -51.28747032 4.56728578 -53.625 4.6875 C-54.40101562 4.69136719 -55.17703125 4.69523437 -55.9765625 4.69921875 C-58.22519649 4.82822745 -58.22519649 4.82822745 -60 7 C-60.27844932 9.71934335 -60.27844932 9.71934335 -60.1953125 12.8828125 C-60.18886719 14.04941406 -60.18242188 15.21601562 -60.17578125 16.41796875 C-60.15902344 17.64128906 -60.14226563 18.86460938 -60.125 20.125 C-60.11597656 21.35605469 -60.10695313 22.58710937 -60.09765625 23.85546875 C-60.07402548 26.90383815 -60.04108054 29.95182382 -60 33 C-61.7544267 29.9441862 -62.29257033 27.59365969 -62.44921875 24.0859375 C-62.49240234 23.16039062 -62.53558594 22.23484375 -62.58007812 21.28125 C-62.63325195 19.84265625 -62.63325195 19.84265625 -62.6875 18.375 C-62.73455078 17.40820312 -62.78160156 16.44140625 -62.83007812 15.4453125 C-63.13567306 8.27134612 -63.13567306 8.27134612 -62 6 C-62.99 6.33 -63.98 6.66 -65 7 C-65 7.99 -65 8.98 -65 10 C-66.33333333 10 -67.66666667 10 -69 10 C-71.33414529 10.32759934 -73.66752239 10.66073053 -76 11 C-76.33 12.32 -76.66 13.64 -77 15 C-78.65 15.33 -80.3 15.66 -82 16 C-74.19924452 2.08579979 -60.82173746 -4.33161442 -46.3125 -9.25 C-30.05839716 -12.94261566 -13.86960175 -8.44236628 0 0 Z " fill="#EFAD16" transform="translate(103,21)"/>
<path d="M0 0 C4.75 1.875 4.75 1.875 7 3 C6.67 4.32 6.34 5.64 6 7 C6.99 7.33 7.98 7.66 9 8 C9.28875 8.94875 9.5775 9.8975 9.875 10.875 C10.66729635 14.17728245 10.66729635 14.17728245 13.45703125 15.296875 C16 17 16 17 17.14453125 19.8984375 C20.96699275 39.79312014 19.2627444 58.8340553 8 76 C1.85088857 84.39131593 -6.47534619 93.39557693 -16.8125 95.9375 C-17.864375 95.958125 -18.91625 95.97875 -20 96 C-20.969375 96.020625 -21.93875 96.04125 -22.9375 96.0625 C-23.618125 96.041875 -24.29875 96.02125 -25 96 C-25 96.66 -25 97.32 -25 98 C-28.01031744 98.93423645 -28.86650268 99.04449911 -32 98 C-32 98.66 -32 99.32 -32 100 C-32.77730469 99.84273438 -33.55460937 99.68546875 -34.35546875 99.5234375 C-39.89146268 98.72834298 -45.44986286 98.68245795 -51.03710938 98.5703125 C-57.16153474 98.3577511 -62.30467543 97.26765567 -68 95 C-67.505 94.01 -67.505 94.01 -67 93 C-66.44957031 93.2165625 -65.89914063 93.433125 -65.33203125 93.65625 C-50.32436879 98.68207185 -33.33947984 97.41132686 -19 91 C-3.96202757 83.13398365 5.70961757 70.7251305 10.8125 54.6875 C14.97589087 39.30744432 13.20008175 24.20503933 6 10 C4.45953051 7.47725467 2.85608625 5.04818103 1.13671875 2.64453125 C0 1 0 1 0 0 Z " fill="#34200E" transform="translate(115,32)"/>
<path d="M0 0 C3.0625 1.5 3.0625 1.5 5 4 C5.50588355 9.14314944 4.84650826 13.92095046 4 19 C3.67 19 3.34 19 3 19 C2.95101562 18.40832031 2.90203125 17.81664063 2.8515625 17.20703125 C2.43543133 12.80895528 1.95034405 9.03071103 0 5 C-2.31 5 -4.62 5 -7 5 C-6.89921097 7.62505184 -6.79731216 10.25005192 -6.69384766 12.875 C-6.60567923 15.14050245 -6.52076173 17.40613356 -6.43896484 19.671875 C-6.23649957 25.05881626 -5.994061 30.42515559 -5.53515625 35.796875 C-4.30376627 50.85272514 -4.30376627 50.85272514 -8.7734375 57.0703125 C-11.50924061 61.37441038 -11.48827841 66.53875922 -10.51953125 71.421875 C-8.04037505 79.58528435 -4.30213082 84.40140342 3.1171875 88.609375 C7.91036107 90.92152919 12.89987389 92.51027244 18 94 C11.61038896 96.12987035 4.71974969 94.65201236 -1.3125 91.9375 C-8.74359824 87.8156547 -12.44917807 81.33232235 -15.30859375 73.5078125 C-17.27962953 66.35863189 -16.09867509 59.6691649 -13 53 C-12.22366211 52.15236084 -12.22366211 52.15236084 -11.43164062 51.28759766 C-9.4483028 48.11845109 -9.83323288 46.05450004 -10.14453125 42.35546875 C-10.19316818 41.70862625 -10.24180511 41.06178375 -10.29191589 40.39533997 C-10.4500783 38.32450139 -10.63004878 36.25632765 -10.8125 34.1875 C-11.48863054 26.02388618 -12.1243889 17.86912906 -12.26171875 9.67578125 C-12.28580811 8.46446533 -12.30989746 7.25314941 -12.3347168 6.00512695 C-12 3 -12 3 -10.61401367 1.10986328 C-7.40686312 -1.09550753 -3.70576824 -0.56462668 0 0 Z " fill="#382110" transform="translate(54,25)"/>
<path d="M0 0 C3.57299352 2.79014663 6.81870825 5.77366341 10 9 C10.63550781 9.62519531 11.27101563 10.25039063 11.92578125 10.89453125 C16.54833654 15.76307617 24 25.00873424 24 32 C22.35 31.67 20.7 31.34 19 31 C18.896875 30.236875 18.79375 29.47375 18.6875 28.6875 C18.2401537 25.95645104 18.2401537 25.95645104 16.375 24.4375 C15.92125 23.963125 15.4675 23.48875 15 23 C15.3125 20.8125 15.3125 20.8125 16 19 C14.35 18.67 12.7 18.34 11 18 C11 17.34 11 16.68 11 16 C10.44441406 15.93296875 9.88882813 15.8659375 9.31640625 15.796875 C6.06735406 14.67915721 4.36347643 12.66525783 1.9375 10.25 C-3.20783449 5.33802981 -8.36451446 2.47442003 -15 0 C-15.73347656 -0.30550781 -16.46695313 -0.61101563 -17.22265625 -0.92578125 C-28.63060449 -5.56369469 -42.26492699 -5.29405558 -54 -2 C-54 -2.99 -54 -3.98 -54 -5 C-52.02 -5.66 -50.04 -6.32 -48 -7 C-48.65226562 -6.86722656 -49.30453125 -6.73445312 -49.9765625 -6.59765625 C-54.6408287 -5.65517178 -59.29868454 -4.74231297 -64 -4 C-47.38718322 -18.67815964 -16.35948308 -10.9350229 0 0 Z " fill="#3B2D29" transform="translate(106,16)"/>
<path d="M0 0 C1.134375 0.020625 2.26875 0.04125 3.4375 0.0625 C5.01186932 5.12297281 5.97625443 9.98763342 6.5625 15.25 C6.64741699 15.98597412 6.73233398 16.72194824 6.81982422 17.48022461 C7.48998183 23.68356485 7.6538427 29.82461889 7.4375 36.0625 C4.4675 37.3825 1.4975 38.7025 -1.5625 40.0625 C-2.8720421 37.44341581 -2.88032674 35.23697499 -3.09765625 32.3125 C-3.18466797 31.14589844 -3.27167969 29.97929688 -3.36132812 28.77734375 C-3.44833984 27.55144531 -3.53535156 26.32554688 -3.625 25.0625 C-3.71587891 23.86753906 -3.80675781 22.67257813 -3.90039062 21.44140625 C-4.97364574 6.70633981 -4.97364574 6.70633981 -4.5625 1.0625 C-3.5625 0.0625 -3.5625 0.0625 0 0 Z " fill="#E6C199" transform="translate(50.5625,28.9375)"/>
<path d="M0 0 C-0.99 0.66 -1.98 1.32 -3 2 C-3.495 1.01 -3.495 1.01 -4 0 C-10.05602241 0.05844462 -10.05602241 0.05844462 -15.0625 2.9375 C-16.13793431 4.92586031 -16.13793431 4.92586031 -16 7 C-16.66 7 -17.32 7 -18 7 C-17.95875 8.19625 -17.9175 9.3925 -17.875 10.625 C-17.875 18.80527286 -18.63662415 27.48186576 -22 35 C-22.33 35 -22.66 35 -23 35 C-22.56223619 29.68923378 -21.94993425 24.48450047 -20.9375 19.25 C-19.43410383 12.55615428 -19.43410383 12.55615428 -21 6.125 C-24.12939738 4.36471397 -27.50300285 4.28085946 -31 5 C-34.61869723 7.40954416 -35.1183099 11.16881996 -36.1875 15.1875 C-36.53167969 16.45980469 -36.87585938 17.73210938 -37.23046875 19.04296875 C-37.61138672 20.50669922 -37.61138672 20.50669922 -38 22 C-38.33 22 -38.66 22 -39 22 C-40.2019586 15.77166905 -39.93161919 12.62870885 -37 7 C-37.99 6.67 -38.98 6.34 -40 6 C-40 5.34 -40 4.68 -40 4 C-38.96875 3.87625 -37.9375 3.7525 -36.875 3.625 C-33.37883154 3.06110186 -30.31602373 2.21317941 -27 1 C-27 -0.32 -27 -1.64 -27 -3 C-25.02 -2.67 -23.04 -2.34 -21 -2 C-20.67 -2.66 -20.34 -3.32 -20 -4 C-20 -3.34 -20 -2.68 -20 -2 C-18.68 -2.99 -17.36 -3.98 -16 -5 C-17.98 -5.33 -19.96 -5.66 -22 -6 C-22 -5.34 -22 -4.68 -22 -4 C-22.66 -4.33 -23.32 -4.66 -24 -5 C-23.67 -5.66 -23.34 -6.32 -23 -7 C-38.97288807 -8.0419128 -38.97288807 -8.0419128 -54.00390625 -3.8671875 C-56.43954564 -2.8090428 -57.54701433 -3.12393369 -60 -4 C-39.14028828 -12.80553405 -19.46049529 -11.84551888 0 0 Z " fill="#E7AB1B" transform="translate(103,21)"/>
<path d="M0 0 C2.875 -0.125 2.875 -0.125 6 0 C6.66 0.66 7.32 1.32 8 2 C7.58509459 12.72370895 4.43247342 23.58523516 2 34 C-1.3 34 -4.6 34 -8 34 C-7.731875 32.824375 -7.46375 31.64875 -7.1875 30.4375 C-6.22954631 26.16043915 -5.39181724 21.86621998 -4.5625 17.5625 C-3.38012168 11.57821788 -1.92036173 5.78832437 0 0 Z " fill="#E6C099" transform="translate(72,29)"/>
<path d="M0 0 C0 0.66 0 1.32 0 2 C0.66 2.33 1.32 2.66 2 3 C1.34 3 0.68 3 0 3 C0 3.66 0 4.32 0 5 C1.175625 4.7525 2.35125 4.505 3.5625 4.25 C8.51865367 3.58741261 10.96614253 5.22672299 15 8 C15 8.66 15 9.32 15 10 C22.56164027 11.91160733 29.67637241 12.37942085 37.44726562 12.56640625 C42.33254189 12.72960357 46.41137879 13.11280587 51 15 C51 14.34 51 13.68 51 13 C52.65 13 54.3 13 56 13 C56 12.34 56 11.68 56 11 C62.625 9.75 62.625 9.75 66 12 C64.50292061 12.63196384 63.00213297 13.25514393 61.5 13.875 C60.24703125 14.39707031 60.24703125 14.39707031 58.96875 14.9296875 C43.33431276 20.56631356 25.59174853 19.5994656 10.59570312 12.58837891 C4.58555547 9.65485446 -0.89799735 6.32561094 -6 2 C-2.25 0 -2.25 0 0 0 Z " fill="#27170E" transform="translate(32,117)"/>
<path d="M0 0 C1.91015625 0.36328125 1.91015625 0.36328125 4.47265625 1.67578125 C6.89546839 6.20538655 5.70309182 10.42395343 4.91015625 15.36328125 C4.7915625 16.1123877 4.67296875 16.86149414 4.55078125 17.63330078 C3.71442934 22.88454532 2.82635061 28.1254154 1.91015625 33.36328125 C3.39515625 33.85828125 3.39515625 33.85828125 4.91015625 34.36328125 C4.25015625 34.36328125 3.59015625 34.36328125 2.91015625 34.36328125 C2.58015625 35.02328125 2.25015625 35.68328125 1.91015625 36.36328125 C0.26015625 35.37328125 -1.38984375 34.38328125 -3.08984375 33.36328125 C-2.61162528 26.2064945 -1.29781296 19.43478688 0.38671875 12.46484375 C0.87243921 9.58676876 0.90508786 8.05622948 -0.08984375 5.36328125 C-3.05984375 4.86828125 -3.05984375 4.86828125 -6.08984375 4.36328125 C-6.19941406 4.91113281 -6.30898437 5.45898438 -6.421875 6.0234375 C-7.97786458 13.80338542 -9.53385417 21.58333333 -11.08984375 29.36328125 C-11.74984375 29.36328125 -12.40984375 29.36328125 -13.08984375 29.36328125 C-13.74984375 28.70328125 -14.40984375 28.04328125 -15.08984375 27.36328125 C-14.81640972 19.16026025 -13.37442428 8.51830962 -8.203125 1.9765625 C-5.30349305 -0.23701975 -3.53406699 -0.23120064 0 0 Z " fill="#3B240E" transform="translate(78.08984375,24.63671875)"/>
<path d="M0 0 C2.97 0.33 5.94 0.66 9 1 C9 1.33 9 1.66 9 2 C5.37 2.33 1.74 2.66 -2 3 C-2 3.99 -2 4.98 -2 6 C-3.03898437 6.47308594 -4.07796875 6.94617188 -5.1484375 7.43359375 C-13.14979663 11.18798163 -19.75139214 14.86282115 -26.08203125 21.1171875 C-28 23 -28 23 -31 25 C-31 24.34 -31 23.68 -31 23 C-32.32 23 -33.64 23 -35 23 C-31.13323929 14.46710017 -21.88906756 7.37644258 -13.34765625 3.9296875 C-8.96446988 2.57188842 -4.55355695 1.59915223 0 1 C0 0.67 0 0.34 0 0 Z " fill="#3A240E" transform="translate(54,8)"/>
<path d="M0 0 C0.474375 1.134375 0.94875 2.26875 1.4375 3.4375 C2.63622083 6.75740166 2.63622083 6.75740166 4 8 C5.2375 8.0825 6.475 8.165 7.75 8.25 C12.30507164 8.72735209 13.79668459 10.79668459 17 14 C20.71000718 14.41831404 20.71000718 14.41831404 24 14 C22.76538462 24.49423077 22.76538462 24.49423077 18.875 27.8125 C17.946875 28.4003125 17.946875 28.4003125 17 29 C16.54625 28.21625 16.0925 27.4325 15.625 26.625 C14.11571258 23.96301969 14.11571258 23.96301969 12 22 C11.95758277 19.66705225 11.95907063 17.33297433 12 15 C11.67 14.01 11.34 13.02 11 12 C10.34 12 9.68 12 9 12 C9 11.34 9 10.68 9 10 C8.34 10 7.68 10 7 10 C6.67 11.65 6.34 13.3 6 15 C5.01 15 4.02 15 3 15 C3 14.34 3 13.68 3 13 C2.01 13 1.02 13 0 13 C-0.33 13.99 -0.66 14.98 -1 16 C-2 11 -3 6 -4 1 C-2 0 -2 0 0 0 Z " fill="#E5C098" transform="translate(71,81)"/>
<path d="M0 0 C6.15234375 -0.09765625 6.15234375 -0.09765625 8 0 C8.33 0.33 8.66 0.66 9 1 C9.969375 0.979375 10.93875 0.95875 11.9375 0.9375 C15 1 15 1 17 3 C12.23947038 4.97387813 9.03511899 5.0070238 4 4 C4 5.32 4 6.64 4 8 C4.66 8.33 5.32 8.66 6 9 C4.4221875 9.2165625 4.4221875 9.2165625 2.8125 9.4375 C0.61685896 9.76144704 -1.57561077 10.11773857 -3.75 10.5625 C-6 11 -6 11 -9 11 C-8.484375 11.391875 -7.96875 11.78375 -7.4375 12.1875 C-6 14 -6 14 -6.25 16.375 C-6.4975 17.24125 -6.745 18.1075 -7 19 C-7.76896494 22.41762195 -8.10016463 25.4942379 -8 29 C-8.66 29.33 -9.32 29.66 -10 30 C-10.09087891 28.24623047 -10.09087891 28.24623047 -10.18359375 26.45703125 C-10.26804034 24.90884386 -10.35268625 23.36066732 -10.4375 21.8125 C-10.49647461 20.65911133 -10.49647461 20.65911133 -10.55664062 19.48242188 C-10.73662174 16.25660651 -10.95118154 13.22944676 -11.625 10.0625 C-11.74875 9.381875 -11.8725 8.70125 -12 8 C-10.5625 6.1875 -10.5625 6.1875 -9 5 C-9.99 4.67 -10.98 4.34 -12 4 C-12 3.34 -12 2.68 -12 2 C-6.06 1.505 -6.06 1.505 0 1 C0 0.67 0 0.34 0 0 Z " fill="#F7B00D" transform="translate(72,14)"/>
<path d="M0 0 C-2.67212126 1.38078233 -5.07201077 2.31680251 -8 3 C-8.66 3.33 -9.32 3.66 -10 4 C-12.33596704 3.68565382 -14.6689503 3.34894532 -17 3 C-25.28514858 2.61856382 -32.99466591 2.75288868 -41 5 C-41 4.01 -41 3.02 -41 2 C-39.02 1.34 -37.04 0.68 -35 0 C-35.65226562 0.13277344 -36.30453125 0.26554688 -36.9765625 0.40234375 C-41.6408287 1.34482822 -46.29868454 2.25768703 -51 3 C-37.75440919 -8.70306631 -15.22330865 -4.4809739 0 0 Z " fill="#3A1E05" transform="translate(93,9)"/>
<path d="M0 0 C2.5625 0.1875 2.5625 0.1875 4.5625 2.1875 C4.41314495 9.95396263 1.29308803 17.01340893 -1.4375 24.1875 C-3.7475 23.8575 -6.0575 23.5275 -8.4375 23.1875 C-8.71894115 17.63084145 -7.84426144 13.45407734 -6 8.3125 C-5.76990234 7.63703125 -5.53980469 6.9615625 -5.30273438 6.265625 C-3.21816048 0.24755081 -3.21816048 0.24755081 0 0 Z " fill="#E7C099" transform="translate(83.4375,61.8125)"/>
<path d="M0 0 C3 0.125 3 0.125 4 1.125 C2.98305085 17.14194915 2.98305085 17.14194915 -2 22.125 C-4.5 22.4375 -4.5 22.4375 -7 22.125 C-9.14460582 18.90809128 -9.19979895 17.97080864 -8.5546875 14.3046875 C-4.96709434 0.20696226 -4.96709434 0.20696226 0 0 Z " fill="#F2C9A0" transform="translate(95,69.875)"/>
<path d="M0 0 C1.32 0.33 2.64 0.66 4 1 C4.14993244 4.6733448 4.09304056 7.68243181 3.0546875 11.2265625 C1.73190812 15.95917319 1.26392945 20.60233556 0.7890625 25.47851562 C0.20815146 30.79184854 0.20815146 30.79184854 -2 33 C-2.33 30.03 -2.66 27.06 -3 24 C-4.32 23.67 -5.64 23.34 -7 23 C-6.34 22.34 -5.68 21.68 -5 21 C-4.24174194 18.79389824 -3.56542324 16.55917592 -2.9375 14.3125 C-2.59589844 13.11238281 -2.25429687 11.91226563 -1.90234375 10.67578125 C-1.02320874 7.09454296 -0.45487643 3.65307978 0 0 Z " fill="#311C0D" transform="translate(99,69)"/>
<path d="M0 0 C0 0.66 0 1.32 0 2 C2.31 2 4.62 2 7 2 C6.67 2.66 6.34 3.32 6 4 C3.6859378 4.73075648 1.35171131 5.40138258 -1 6 C-1 6.33 -1 6.66 -1 7 C-22.92897572 9.88946504 -22.92897572 9.88946504 -31 6 C-27.99580359 4.9986012 -25.12290635 4.48578543 -22 4 C-22 3.67 -22 3.34 -22 3 C-16.72 3 -11.44 3 -6 3 C-6 2.34 -6 1.68 -6 1 C-3.92446352 0.4465236 -2.15634036 0 0 0 Z " fill="#F6B216" transform="translate(86,120)"/>
<path d="M0 0 C3.63 0.33 7.26 0.66 11 1 C11 1.66 11 2.32 11 3 C12.65 2.01 14.3 1.02 16 0 C15.814375 0.61875 15.62875 1.2375 15.4375 1.875 C14.76313824 4.04160178 14.76313824 4.04160178 16 6 C15.67 6.66 15.34 7.32 15 8 C16.3303125 7.87625 16.3303125 7.87625 17.6875 7.75 C21 8 21 8 23.875 9.375 C27.06992512 13.3216722 26.42009114 17.10827202 26 22 C25.34 22 24.68 22 24 22 C24.020625 22.969375 24.04125 23.93875 24.0625 24.9375 C24 28 24 28 23 29 C22.92741054 31.18639453 22.91626217 33.37500389 22.9375 35.5625 C22.94652344 36.76003906 22.95554687 37.95757812 22.96484375 39.19140625 C22.97644531 40.11824219 22.98804687 41.04507813 23 42 C22.34 42 21.68 42 21 42 C20.18537505 46.65499974 19.56606279 51.30976546 19 56 C18.67 55.34 18.34 54.68 18 54 C17.34 54 16.68 54 16 54 C15.67 55.32 15.34 56.64 15 58 C14.6648168 53.19570741 15.45864211 51.00752591 18 47 C19.66962847 41.92810975 20.49646842 37.02639875 21.0625 31.75 C21.87755798 24.36732606 21.87755798 24.36732606 23 21 C23.48961091 16.02890606 23.48961091 16.02890606 21.375 11.6875 C19.03644553 9.84142063 19.03644553 9.84142063 16 9.0625 C13 8 13 8 11.1875 5.375 C9.27638835 2.79867948 9.27638835 2.79867948 6.75390625 2.67578125 C4.48314985 2.68640882 2.25979935 2.7827116 0 3 C0 2.01 0 1.02 0 0 Z " fill="#D9A22B" transform="translate(79,56)"/>
<path d="M0 0 C0.33 0.66 0.66 1.32 1 2 C1.99 2.66 2.98 3.32 4 4 C3.34 4 2.68 4 2 4 C2.7425 5.423125 2.7425 5.423125 3.5 6.875 C5.46907746 11.51976166 5.77553001 16.02844444 5 21 C3.90264155 23.39898708 2.71838675 24.95941573 1 27 C0.01 26.67 -0.98 26.34 -2 26 C-1.77570312 25.14535156 -1.77570312 25.14535156 -1.546875 24.2734375 C-0.28217211 19.01588693 0.6224317 14.65981787 -1.3125 9.5 C-2.75886988 6.91592301 -2.75886988 6.91592301 -5 6 C-5 5.01 -5 4.02 -5 3 C-2.5 1.3125 -2.5 1.3125 0 0 Z " fill="#372418" transform="translate(65,78)"/>
<path d="M0 0 C0.33 0 0.66 0 1 0 C2.93461266 17.92868762 2.93461266 17.92868762 -0.375 22.8125 C-0.83648437 23.33457031 -1.29796875 23.85664062 -1.7734375 24.39453125 C-4.68779104 28.20917871 -4.10878595 33.23019097 -4.0625 37.8125 C-4.04896484 39.55466797 -4.04896484 39.55466797 -4.03515625 41.33203125 C-4.02355469 42.21246094 -4.01195312 43.09289062 -4 44 C-7.22640529 40.77359471 -6.55476723 36.7771841 -6.75 32.375 C-6.80542969 31.49714844 -6.86085937 30.61929688 -6.91796875 29.71484375 C-7.23781728 23.1918722 -7.04300254 17.14308083 -3.375 11.5 C-2.92125 11.005 -2.4675 10.51 -2 10 C-1.67 10.33 -1.34 10.66 -1 11 C-0.67 7.37 -0.34 3.74 0 0 Z " fill="#E9AC22" transform="translate(43,56)"/>
<path d="M0 0 C4.75 1.875 4.75 1.875 7 3 C6.67 4.32 6.34 5.64 6 7 C6.99 7.33 7.98 7.66 9 8 C9.28875 8.94875 9.5775 9.8975 9.875 10.875 C11.24696057 14.68600158 12.58525701 15.07373472 16 17 C17.58547518 20.41486963 17.07119026 24.29810637 17 28 C16.34 28 15.68 28 15 28 C14.34 28.66 13.68 29.32 13 30 C12.70867187 28.96101563 12.41734375 27.92203125 12.1171875 26.8515625 C9.9354038 19.33662996 7.69568561 12.60140414 3.33203125 6.015625 C2.04521147 4.06841384 1.00078225 2.10591146 0 0 Z " fill="#2D180D" transform="translate(115,32)"/>
<path d="M0 0 C8.39783867 -0.98369477 14.11109077 1.20197376 21 6 C22.36741685 7.29835539 23.71234181 8.62250519 25 10 C24.01 10.495 24.01 10.495 23 11 C23 10.34 23 9.68 23 9 C21.68 8.67 20.36 8.34 19 8 C18.67 8.66 18.34 9.32 18 10 C17.34 8.68 16.68 7.36 16 6 C15.01 7.485 15.01 7.485 14 9 C9.25981099 7.16508812 4.63586749 5.08058541 0 3 C0 2.01 0 1.02 0 0 Z " fill="#39230D" transform="translate(85,10)"/>
<path d="M0 0 C4.04898357 1.29078335 5.66928738 2.43879924 7.75 6.125 C10.56959887 10.66565273 13.8721826 13.85126208 17.94921875 17.2734375 C19.73341543 18.77556118 21.38069428 20.3241471 23 22 C22 23 22 23 19.4375 23.0625 C18.633125 23.041875 17.82875 23.02125 17 23 C17 21.35 17 19.7 17 18 C15.02 18.33 13.04 18.66 11 19 C10.34 16.69 9.68 14.38 9 12 C8.01 12.33 7.02 12.66 6 13 C6 11.35 6 9.7 6 8 C4.68 8 3.36 8 2 8 C2.33 6.68 2.66 5.36 3 4 C2.34 4 1.68 4 1 4 C0.67 2.68 0.34 1.36 0 0 Z " fill="#301B0A" transform="translate(15,99)"/>
<path d="M0 0 C0.763125 0.37125 1.52625 0.7425 2.3125 1.125 C3.6428125 1.558125 3.6428125 1.558125 5 2 C5.99 1.34 6.98 0.68 8 0 C10.6875 -0.125 10.6875 -0.125 13 0 C13.33 1.32 13.66 2.64 14 4 C12.741875 4.04125 11.48375 4.0825 10.1875 4.125 C7.99010474 4.30764489 7.99010474 4.30764489 6 5 C3.91367303 7.91841857 3.91367303 7.91841857 3 11 C0.69 10.34 -1.62 9.68 -4 9 C-3.01 8.67 -2.02 8.34 -1 8 C-1.020625 7.05125 -1.04125 6.1025 -1.0625 5.125 C-1 2 -1 2 0 0 Z " fill="#271612" transform="translate(75,58)"/>
<path d="M0 0 C-0.33 1.32 -0.66 2.64 -1 4 C4.445 4.495 4.445 4.495 10 5 C5.72424312 9.13782924 1.68046944 10.05944297 -4 11 C-4.33 10.34 -4.66 9.68 -5 9 C-2.36 8.34 0.28 7.68 3 7 C0.03 6.505 0.03 6.505 -3 6 C-3 5.34 -3 4.68 -3 4 C-4.98 4.33 -6.96 4.66 -9 5 C-9 5.66 -9 6.32 -9 7 C-15.93 6.505 -15.93 6.505 -23 6 C-23 5.67 -23 5.34 -23 5 C-21.90300781 4.89042969 -20.80601563 4.78085938 -19.67578125 4.66796875 C-18.22128484 4.50844334 -16.76686137 4.34825187 -15.3125 4.1875 C-14.59126953 4.11724609 -13.87003906 4.04699219 -13.12695312 3.97460938 C-8.4525642 3.44100333 -4.20316794 0 0 0 Z " fill="#E1A728" transform="translate(89,116)"/>
<path d="M0 0 C1.32 0.33 2.64 0.66 4 1 C-2.2697622 8.80606155 -9.16136011 16.17264049 -19 19 C-19.66 18.01 -20.32 17.02 -21 16 C-20.0925 15.855625 -19.185 15.71125 -18.25 15.5625 C-15.78523044 15.13590527 -13.41152893 14.64925779 -11 14 C-10.67 12.35 -10.34 10.7 -10 9 C-9.34 9.33 -8.68 9.66 -8 10 C-6.68 7.69 -5.36 5.38 -4 3 C-3.01 3 -2.02 3 -1 3 C-0.67 2.01 -0.34 1.02 0 0 Z " fill="#564F4E" transform="translate(117,109)"/>
<path d="M0 0 C0.268125 0.639375 0.53625 1.27875 0.8125 1.9375 C1.88667752 4.33131686 1.88667752 4.33131686 5 5 C5.70211894 6.65204456 6.36971413 8.31923769 7 10 C7.66 10.33 8.32 10.66 9 11 C5.91111478 13.05925681 5.29064073 13.2390374 1.8125 13.125 C-0.0746875 13.063125 -0.0746875 13.063125 -2 13 C-2.33 12.01 -2.66 11.02 -3 10 C-2.34 9.67 -1.68 9.34 -1 9 C-1.20625 8.443125 -1.4125 7.88625 -1.625 7.3125 C-2.10695211 4.340462 -1.26565028 2.68020059 0 0 Z " fill="#F9B313" transform="translate(42,108)"/>
<path d="M0 0 C0.66 0.33 1.32 0.66 2 1 C-0.67140568 6.84462237 -4.13357925 11.59615352 -8.4375 16.3125 C-8.89165283 16.81555664 -9.34580566 17.31861328 -9.8137207 17.83691406 C-12.90293896 21.13809971 -16.1118743 23.69774836 -20 26 C-20.66 26 -21.32 26 -22 26 C-21.67 24.68 -21.34 23.36 -21 22 C-19.68 22 -18.36 22 -17 22 C-17 21.34 -17 20.68 -17 20 C-16.34 20 -15.68 20 -15 20 C-15 19.34 -15 18.68 -15 18 C-14.01 18 -13.02 18 -12 18 C-11.67 16.68 -11.34 15.36 -11 14 C-10.34 14 -9.68 14 -9 14 C-9 13.01 -9 12.02 -9 11 C-8.01 11 -7.02 11 -6 11 C-6 10.34 -6 9.68 -6 9 C-5.34 9 -4.68 9 -4 9 C-4 7.68 -4 6.36 -4 5 C-3.34 5 -2.68 5 -2 5 C-2 3.68 -2 2.36 -2 1 C-1.34 0.67 -0.68 0.34 0 0 Z " fill="#DDA622" transform="translate(121,95)"/>
<path d="M0 0 C0.515625 0.61875 1.03125 1.2375 1.5625 1.875 C4.54131638 4.47191684 7.23215442 4.95337623 11 6 C11.99 7.485 11.99 7.485 13 9 C12.01 9 11.02 9 10 9 C9.67 9.66 9.34 10.32 9 11 C6.69 11 4.38 11 2 11 C1.67 9.68 1.34 8.36 1 7 C1.66 7 2.32 7 3 7 C2.34 6.67 1.68 6.34 1 6 C0.71125 7.134375 0.4225 8.26875 0.125 9.4375 C-0.24625 10.613125 -0.6175 11.78875 -1 13 C-1.99 13.495 -1.99 13.495 -3 14 C-2.91621094 13.30132812 -2.83242187 12.60265625 -2.74609375 11.8828125 C-2.64425781 10.97273438 -2.54242188 10.06265625 -2.4375 9.125 C-2.33308594 8.22007813 -2.22867188 7.31515625 -2.12109375 6.3828125 C-1.80325148 3.98346943 -1.80325148 3.98346943 -3 2 C-2.01 2 -1.02 2 0 2 C0 1.34 0 0.68 0 0 Z " fill="#4F381B" transform="translate(89,60)"/>
<path d="M0 0 C0.99 0.99 1.98 1.98 3 3 C2.01 6.3 1.02 9.6 0 13 C-0.66 13 -1.32 13 -2 13 C-2.33 16.96 -2.66 20.92 -3 25 C-6.06237366 18.87525269 -5.70377661 13.59347749 -3.625 7.125 C-2.64168166 4.35383014 -1.6626887 2.49403305 0 0 Z " fill="#4F2F0A" transform="translate(43,75)"/>
<path d="M0 0 C3.75 0.3125 3.75 0.3125 6.6875 1.8125 C9.08327692 4.71647203 9.2290111 6.49447302 8.9921875 10.20703125 C8.64113387 13.25893296 8.25519721 16.28131673 7.75 19.3125 C7.42 19.3125 7.09 19.3125 6.75 19.3125 C6.70101562 18.72082031 6.65203125 18.12914063 6.6015625 17.51953125 C6.18543133 13.12145528 5.70034405 9.34321103 3.75 5.3125 C1.11 4.9825 -1.53 4.6525 -4.25 4.3125 C-4.25 0.13554102 -4.18944588 0.40283133 0 0 Z " fill="#321D0C" transform="translate(50.25,24.6875)"/>
<path d="M0 0 C0.66 0.66 1.32 1.32 2 2 C0.50292061 2.63196384 -0.99786703 3.25514393 -2.5 3.875 C-3.75296875 4.39707031 -3.75296875 4.39707031 -5.03125 4.9296875 C-12.40978201 7.58984246 -18.71308985 8.27213638 -26.5 8.125 C-27.4178125 8.11597656 -28.335625 8.10695312 -29.28125 8.09765625 C-31.52111556 8.07432432 -33.76041183 8.04159235 -36 8 C-36 7.67 -36 7.34 -36 7 C-28.31516461 6.32546899 -20.71589817 5.8432436 -13 6 C-13 5.01 -13 4.02 -13 3 C-11.35 3 -9.7 3 -8 3 C-8 2.34 -8 1.68 -8 1 C-5.23749964 -0.38125018 -3.05268901 -0.19079306 0 0 Z " fill="#706D69" transform="translate(96,127)"/>
<path d="M0 0 C0.66 0.33 1.32 0.66 2 1 C2 8.66666667 2 16.33333333 2 24 C1.67 24 1.34 24 1 24 C0.67 21.03 0.34 18.06 0 15 C-0.66 15 -1.32 15 -2 15 C-2.33 15.99 -2.66 16.98 -3 18 C-3.0809723 15.56183415 -3.14046972 13.12635616 -3.1875 10.6875 C-3.21263672 9.99720703 -3.23777344 9.30691406 -3.26367188 8.59570312 C-3.33834499 3.44325817 -3.33834499 3.44325817 -1.48828125 1.01953125 C-0.99714844 0.68308594 -0.50601563 0.34664062 0 0 Z " fill="#422A1C" transform="translate(45,25)"/>
<path d="M0 0 C0 0.33 0 0.66 0 1 C-2.64 1.33 -5.28 1.66 -8 2 C-5.56612247 3.21693876 -3.58161154 3.31959896 -0.875 3.5625 C0.03507812 3.64628906 0.94515625 3.73007813 1.8828125 3.81640625 C2.58148438 3.87699219 3.28015625 3.93757812 4 4 C4 4.33 4 4.66 4 5 C-8.59138171 5.17274761 -8.59138171 5.17274761 -13.625 4.4375 C-17.48626905 3.93696512 -19.35329613 4.75232618 -22.9375 6.125 C-26.05959239 7.0170264 -27.03064553 6.91068755 -30 6 C-19.95970284 1.59935912 -10.97491398 -0.42031585 0 0 Z " fill="#756869" transform="translate(72,5)"/>
<path d="M0 0 C0.66 0.33 1.32 0.66 2 1 C2 1.66 2 2.32 2 3 C2.99 3.33 3.98 3.66 5 4 C2.03 6.97 -0.94 9.94 -4 13 C-4.33 12.34 -4.66 11.68 -5 11 C-6.32 11 -7.64 11 -9 11 C-7.59155282 7.78475695 -5.89655214 5.67816132 -3.375 3.25 C-2.74335938 2.63640625 -2.11171875 2.0228125 -1.4609375 1.390625 C-0.73777344 0.70226562 -0.73777344 0.70226562 0 0 Z " fill="#3B2819" transform="translate(28,20)"/>
<path d="M0 0 C0 0.66 0 1.32 0 2 C0.66 2.33 1.32 2.66 2 3 C1.34 3 0.68 3 0 3 C0 3.66 0 4.32 0 5 C1.98 4.67 3.96 4.34 6 4 C6.33 5.32 6.66 6.64 7 8 C9.31 8.33 11.62 8.66 14 9 C14 10.32 14 11.64 14 13 C6.04425593 11.80663839 -0.752628 6.9470216 -6 1 C-3.92446352 0.4465236 -2.15634036 0 0 0 Z " fill="#4E4443" transform="translate(32,117)"/>
<path d="M0 0 C2.09749995 2.35968744 2.96905704 3.54616994 3.1875 6.75 C3.125625 7.4925 3.06375 8.235 3 9 C2.34 9 1.68 9 1 9 C1.99 10.32 2.98 11.64 4 13 C4.66 12.67 5.32 12.34 6 12 C5.34 13.32 4.68 14.64 4 16 C1.625 16.1875 1.625 16.1875 -1 16 C-3 13 -3 13 -2.75 9.6875 C-2.0662376 6.32566822 -1.17734651 3.21808045 0 0 Z " fill="#CEB091" transform="translate(89,76)"/>
<path d="M0 0 C6.625 -0.125 6.625 -0.125 10 1 C11.77084896 1.01945988 13.54243954 0.99380898 15.3125 0.9375 C19.6209784 0.88607254 22.98960108 1.26577344 27 3 C27 3.33 27 3.66 27 4 C7.99544419 4.55353075 7.99544419 4.55353075 0 1 C0 0.67 0 0.34 0 0 Z " fill="#32252A" transform="translate(46,130)"/>
<path d="M0 0 C3 1 3 1 5 3 C5 3.99 5 4.98 5 6 C5.66 6 6.32 6 7 6 C7.33 6.99 7.66 7.98 8 9 C8.66 9.33 9.32 9.66 10 10 C10.625 12.0625 10.625 12.0625 11 14 C11.99 14 12.98 14 14 14 C14.33 16.31 14.66 18.62 15 21 C7.95658473 15.84628151 2.04507462 8.6347595 0 0 Z " fill="#575050" transform="translate(11,97)"/>
<path d="M0 0 C0.99 1.32 1.98 2.64 3 4 C3.66 3.01 4.32 2.02 5 1 C5.33534729 3.93728294 5.66836013 6.87479818 6 9.8125 C6.09539063 10.64587891 6.19078125 11.47925781 6.2890625 12.33789062 C6.37929688 13.14033203 6.46953125 13.94277344 6.5625 14.76953125 C6.64628906 15.50792236 6.73007812 16.24631348 6.81640625 17.00708008 C7 19 7 19 7 22 C6.34 21.67 5.68 21.34 5 21 C5 18.36 5 15.72 5 13 C4.34 13 3.68 13 3 13 C3.33 15.31 3.66 17.62 4 20 C3.34 20 2.68 20 2 20 C1.34 13.4 0.68 6.8 0 0 Z " fill="#442D17" transform="translate(55,33)"/>
<path d="M0 0 C2.40119059 3.60178588 2.43771322 6.50866369 2.625 10.6875 C2.66367187 11.38939453 2.70234375 12.09128906 2.7421875 12.81445312 C2.8362334 14.54254655 2.9191968 16.27123675 3 18 C3.33 18 3.66 18 4 18 C3.88637738 19.4800841 3.75877092 20.95910074 3.625 22.4375 C3.55539063 23.26121094 3.48578125 24.08492187 3.4140625 24.93359375 C3.27742188 25.61550781 3.14078125 26.29742187 3 27 C2.34 27.33 1.68 27.66 1 28 C0.01 19.75 -0.98 11.5 -2 3 C-1.34 3 -0.68 3 0 3 C0 2.01 0 1.02 0 0 Z " fill="#E5A823" transform="translate(60,25)"/>
<path d="M0 0 C1.43655854 -0.08131463 2.8744483 -0.13933559 4.3125 -0.1875 C5.51326172 -0.23970703 5.51326172 -0.23970703 6.73828125 -0.29296875 C9 0 9 0 10.7734375 1.2421875 C14.70985369 6.88354828 11.52081359 17.50724969 10.6328125 23.80078125 C10.04868266 26.75388209 9.22389346 29.25909574 8 32 C7.67 32 7.34 32 7 32 C7.43776381 26.68923378 8.05006575 21.48450047 9.0625 16.25 C10.60716782 9.55558723 10.60716782 9.55558723 8.9375 3.1875 C6.09072753 1.44270397 3.28153235 1.30957852 0 1 C0 0.67 0 0.34 0 0 Z " fill="#D5A02E" transform="translate(73,24)"/>
<path d="M0 0 C3.63 0.33 7.26 0.66 11 1 C11 1.66 11 2.32 11 3 C12.65 2.01 14.3 1.02 16 0 C15.814375 0.61875 15.62875 1.2375 15.4375 1.875 C14.76313824 4.04160178 14.76313824 4.04160178 16 6 C15.67 6.66 15.34 7.32 15 8 C16.3303125 7.87625 16.3303125 7.87625 17.6875 7.75 C21.79836847 8.06025422 23.26513033 8.94338095 26 12 C26.3125 15.25 26.3125 15.25 26 18 C25.67 18 25.34 18 25 18 C25 16.35 25 14.7 25 13 C23.07230291 11.95583075 21.17852285 11.05853208 19.09375 10.375 C13.35331401 8.49008072 13.35331401 8.49008072 11.0625 5.3125 C9.26039623 2.79192102 9.26039623 2.79192102 6.76171875 2.6796875 C4.48763005 2.68676087 2.26304038 2.78239996 0 3 C0 2.01 0 1.02 0 0 Z " fill="#E2AC29" transform="translate(79,56)"/>
<path d="M0 0 C0.62261719 0.2165625 1.24523438 0.433125 1.88671875 0.65625 C13.54671086 4.16888361 27.06705744 4.44172422 39 2 C39 2.66 39 3.32 39 4 C38.01 4.33 37.02 4.66 36 5 C36 5.66 36 6.32 36 7 C35.22269531 6.84273437 34.44539063 6.68546875 33.64453125 6.5234375 C28.10853732 5.72834298 22.55013714 5.68245795 16.96289062 5.5703125 C10.83846526 5.3577511 5.69532457 4.26765567 0 2 C0 1.34 0 0.68 0 0 Z " fill="#4C2D04" transform="translate(47,125)"/>
<path d="M0 0 C0.556875 0.680625 0.556875 0.680625 1.125 1.375 C3.54264685 3.47029394 5.95430602 4.12013285 9 5 C9.33 6.98 9.66 8.96 10 11 C6.29496359 10.39665691 4.14031852 8.77525763 1.25 6.4375 C0.45078125 5.79683594 -0.3484375 5.15617187 -1.171875 4.49609375 C-1.77515625 4.00238281 -2.3784375 3.50867188 -3 3 C-2.01 2.01 -1.02 1.02 0 0 Z " fill="#361E0D" transform="translate(101,15)"/>
<path d="M0 0 C0.33 0.66 0.66 1.32 1 2 C1.99 2.33 2.98 2.66 4 3 C3.67 3.66 3.34 4.32 3 5 C2.67 5 2.34 5 2 5 C1.87625 6.03125 1.7525 7.0625 1.625 8.125 C1.05502861 11.65882259 0.4087586 14.7128966 -1 18 C-1.99 18.33 -2.98 18.66 -4 19 C-4.38983051 11.20338983 -4.38983051 11.20338983 -1 7 C-0.27518916 3.34725531 -0.27518916 3.34725531 0 0 Z " fill="#2A1B12" transform="translate(89,64)"/>
<path d="M0 0 C-0.598125 0.7425 -1.19625 1.485 -1.8125 2.25 C-4.99560208 6.93969489 -5.83368812 12.53953984 -7 18 C-7.33 18 -7.66 18 -8 18 C-9.2019586 11.77166905 -8.93161919 8.62870885 -6 3 C-6.99 2.67 -7.98 2.34 -9 2 C-9 1.34 -9 0.68 -9 0 C-5.52176885 -1.15941038 -3.54104422 -0.70820884 0 0 Z " fill="#E5A61C" transform="translate(72,25)"/>
<path d="M0 0 C5.28000363 0.02520288 8.76610762 0.7360587 13.375 3.25 C13.375 3.91 13.375 4.57 13.375 5.25 C10.60282133 4.96828671 7.83269759 4.67508608 5.0625 4.375 C4.27681641 4.29636719 3.49113281 4.21773437 2.68164062 4.13671875 C1.5456543 4.01103516 1.5456543 4.01103516 0.38671875 3.8828125 C-0.30977783 3.80949707 -1.00627441 3.73618164 -1.72387695 3.66064453 C-3.625 3.25 -3.625 3.25 -6.625 1.25 C-4.85641286 -0.51858714 -2.39615486 0.03567476 0 0 Z " fill="#2A1D1D" transform="translate(69.625,5.75)"/>
<path d="M0 0 C-0.33 1.32 -0.66 2.64 -1 4 C-5.49167828 5.19600901 -9.73269793 4.9185704 -14.3125 4.5625 C-15.42334961 4.48418945 -15.42334961 4.48418945 -16.55664062 4.40429688 C-18.37152709 4.27549848 -20.18583325 4.13856738 -22 4 C-22 3.67 -22 3.34 -22 3 C-16.72 3 -11.44 3 -6 3 C-6 2.34 -6 1.68 -6 1 C-3.92446352 0.4465236 -2.15634036 0 0 0 Z M-24 5 C-20.7 5 -17.4 5 -14 5 C-14 5.33 -14 5.66 -14 6 C-17.3 6 -20.6 6 -24 6 C-24 5.67 -24 5.34 -24 5 Z " fill="#F4AF07" transform="translate(86,120)"/>
<path d="M0 0 C0.66 0 1.32 0 2 0 C1.59060025 6.76215448 0.43046191 12.67162748 -2 19 C-4 17 -4 17 -4.1875 14.4375 C-4 12 -4 12 -3 11 C-2.7180604 8.71315662 -2.55222995 6.42636727 -2.37890625 4.12890625 C-2 2 -2 2 0 0 Z " fill="#2F282B" transform="translate(131,78)"/>
<path d="M0 0 C0 5.61 0 11.22 0 17 C-0.33 15.68 -0.66 14.36 -1 13 C-1.66 13 -2.32 13 -3 13 C-3.96070434 10.11788698 -4.10581883 8.30149956 -4.0625 5.3125 C-4.05347656 4.50425781 -4.04445313 3.69601563 -4.03515625 2.86328125 C-4.02355469 2.24839844 -4.01195312 1.63351563 -4 1 C-2 0 -2 0 0 0 Z " fill="#25170F" transform="translate(10,60)"/>
<path d="M0 0 C1.5625 1.1875 1.5625 1.1875 3 3 C2.69661464 4.67237741 2.35716012 6.33827634 2 8 C1.92094375 10.05733273 1.89220175 12.11695513 1.90234375 14.17578125 C1.90556641 15.33271484 1.90878906 16.48964844 1.91210938 17.68164062 C1.92048828 18.87982422 1.92886719 20.07800781 1.9375 21.3125 C1.94201172 22.53001953 1.94652344 23.74753906 1.95117188 25.00195312 C1.96293422 28.00135226 1.97937174 31.00065089 2 34 C-0.72713461 31.27286539 -0.32240094 29.6367445 -0.44921875 25.8203125 C-0.49240234 24.58152344 -0.53558594 23.34273437 -0.58007812 22.06640625 C-0.61552734 20.76574219 -0.65097656 19.46507812 -0.6875 18.125 C-0.73455078 16.83207031 -0.78160156 15.53914063 -0.83007812 14.20703125 C-1.16311087 3.69193174 -1.16311087 3.69193174 0 0 Z " fill="#4E3209" transform="translate(10,50)"/>
<path d="M0 0 C1.5 1.3125 1.5 1.3125 3 3 C3 3.99 3 4.98 3 6 C4.32 6.33 5.64 6.66 7 7 C6.67 8.32 6.34 9.64 6 11 C3.69 10.67 1.38 10.34 -1 10 C-1.125 3.375 -1.125 3.375 0 0 Z " fill="#D8B795" transform="translate(76,75)"/>
<path d="M0 0 C2.475 0.99 2.475 0.99 5 2 C4.67 3.98 4.34 5.96 4 8 C1 9 1 9 -2 8 C-2.33 6.02 -2.66 4.04 -3 2 C-2.01 2 -1.02 2 0 2 C0 1.34 0 0.68 0 0 Z " fill="#EBC599" transform="translate(80,73)"/>
<path d="M0 0 C4.46182436 1.31074365 7.99618757 3.07066011 11.875 5.625 C12.84179688 6.25664062 13.80859375 6.88828125 14.8046875 7.5390625 C15.52914062 8.02117188 16.25359375 8.50328125 17 9 C16.34 9.66 15.68 10.32 15 11 C15 10.34 15 9.68 15 9 C13.68 8.67 12.36 8.34 11 8 C10.67 8.66 10.34 9.32 10 10 C9.34 8.68 8.68 7.36 8 6 C7.01 7.485 7.01 7.485 6 9 C5.01 8.67 4.02 8.34 3 8 C3.33 7.01 3.66 6.02 4 5 C3.34 4.360625 2.68 3.72125 2 3.0625 C0 1 0 1 0 0 Z " fill="#5F544C" transform="translate(93,10)"/>
<path d="M0 0 C2 3 2 3 2 5 C2.66 5 3.32 5 4 5 C2.8141763 8.37503669 1.72426311 10.64722731 -1 13 C-2.51297182 10.59704475 -3.03665969 9.36659693 -2.75 6.5 C-2.045492 4.15164001 -1.18844709 2.13920477 0 0 Z " fill="#45342E" transform="translate(122,96)"/>
<path d="M0 0 C0 3.3 0 6.6 0 10 C-0.66 10 -1.32 10 -2 10 C-2.72529579 12.5903421 -3.11836143 14.99761777 -3.4375 17.6875 C-3.623125 18.780625 -3.80875 19.87375 -4 21 C-4.66 21.33 -5.32 21.66 -6 22 C-4.9245283 7.11320755 -4.9245283 7.11320755 -3 1 C-1 0 -1 0 0 0 Z " fill="#23170E" transform="translate(133,68)"/>
<path d="M0 0 C0.75 1.625 0.75 1.625 1 4 C-1.02291546 7.61234904 -2.53871879 9.6924792 -6 12 C-6.66 10.68 -7.32 9.36 -8 8 C-7.04578192 6.85073734 -6.08647955 5.70569459 -5.125 4.5625 C-4.59132813 3.92441406 -4.05765625 3.28632812 -3.5078125 2.62890625 C-2 1 -2 1 0 0 Z " fill="#341D10" transform="translate(95,103)"/>
<path d="M0 0 C0.33 0 0.66 0 1 0 C1.33 2.97 1.66 5.94 2 9 C2.66 9 3.32 9 4 9 C4.33 11.31 4.66 13.62 5 16 C4.34 16 3.68 16 3 16 C3 16.99 3 17.98 3 19 C2.34 19 1.68 19 1 19 C-0.15316726 12.65758005 -0.09507063 6.43311296 0 0 Z " fill="#3B3434" transform="translate(5,64)"/>
<path d="M0 0 C0.66 1.32 1.32 2.64 2 4 C5.04199472 5.29231642 5.04199472 5.29231642 8 6 C8 6.99 8 7.98 8 9 C4.7 9 1.4 9 -2 9 C-1.34 6.03 -0.68 3.06 0 0 Z " fill="#CAAE8B" transform="translate(66,54)"/>
<path d="M0 0 C1.22589844 0.15275391 1.22589844 0.15275391 2.4765625 0.30859375 C3.41628906 0.43427734 3.41628906 0.43427734 4.375 0.5625 C4.375 0.8925 4.375 1.2225 4.375 1.5625 C0.745 1.8925 -2.885 2.2225 -6.625 2.5625 C-6.625 3.5525 -6.625 4.5425 -6.625 5.5625 C-9.595 5.5625 -12.565 5.5625 -15.625 5.5625 C-15.625 4.9025 -15.625 4.2425 -15.625 3.5625 C-14.99851563 3.35753906 -14.37203125 3.15257812 -13.7265625 2.94140625 C-12.90929688 2.67199219 -12.09203125 2.40257812 -11.25 2.125 C-10.43789063 1.85816406 -9.62578125 1.59132813 -8.7890625 1.31640625 C-3.65971021 -0.47053417 -3.65971021 -0.47053417 0 0 Z " fill="#221514" transform="translate(58.625,8.4375)"/>
<path d="M0 0 C0.66 0 1.32 0 2 0 C2.33 0.66 2.66 1.32 3 2 C4.32 2.33 5.64 2.66 7 3 C3.37 5.31 -0.26 7.62 -4 10 C-4.33 8.68 -4.66 7.36 -5 6 C-4.01 6.495 -4.01 6.495 -3 7 C-2.67 6.34 -2.34 5.68 -2 5 C-2.66 4.67 -3.32 4.34 -4 4 C-4 3.34 -4 2.68 -4 2 C-3.01 2 -2.02 2 -1 2 C-0.67 1.34 -0.34 0.68 0 0 Z " fill="#DBB891" transform="translate(66,71)"/>
<path d="M0 0 C0.33 0 0.66 0 1 0 C1.22211116 1.93596892 1.42722992 3.87389328 1.625 5.8125 C1.74101563 6.89144531 1.85703125 7.97039062 1.9765625 9.08203125 C2 12 2 12 0 15 C-0.99 14.67 -1.98 14.34 -3 14 C-2.67 10.37 -2.34 6.74 -2 3 C-1.34 3 -0.68 3 0 3 C0 2.01 0 1.02 0 0 Z " fill="#2B180D" transform="translate(47,63)"/>
<path d="M0 0 C2 2 2 2 2.25 4.5 C2 7 2 7 0 9 C-0.16681109 12.08347826 -0.16681109 12.08347826 0 15 C-1.32 15.33 -2.64 15.66 -4 16 C-3.47606294 10.13190493 -2.23891142 5.45126259 0 0 Z " fill="#312E2A" transform="translate(10,45)"/>
<path d="M0 0 C1.32 0 2.64 0 4 0 C3.67 1.65 3.34 3.3 3 5 C3.66 5 4.32 5 5 5 C5 6.32 5 7.64 5 9 C2.03 8.505 2.03 8.505 -1 8 C-0.67 5.36 -0.34 2.72 0 0 Z " fill="#EBC49C" transform="translate(53,56)"/>
<path d="M0 0 C0 1.32 0 2.64 0 4 C-0.99 4.495 -0.99 4.495 -2 5 C-2.46523063 6.89533342 -2.46523063 6.89533342 -2.625 9.0625 C-2.810625 11.0115625 -2.810625 11.0115625 -3 13 C-3.99 13 -4.98 13 -6 13 C-5.79375 12.0925 -5.5875 11.185 -5.375 10.25 C-4.9872755 6.88972103 -5.19588033 5.75924185 -7 3 C-2.25 0 -2.25 0 0 0 Z " fill="#DDB791" transform="translate(60,68)"/>
<path d="M0 0 C0.99 0.495 0.99 0.495 2 1 C2 1.66 2 2.32 2 3 C2.99 3.33 3.98 3.66 5 4 C5 4.66 5 5.32 5 6 C5.680625 6.268125 6.36125 6.53625 7.0625 6.8125 C10.39710809 8.16053306 13.69743237 9.57536298 17 11 C14 12 14 12 10 12 C9.34 11.34 8.68 10.68 8 10 C7.34 10 6.68 10 6 10 C5.7525 9.195625 5.505 8.39125 5.25 7.5625 C4.27761141 4.828919 4.27761141 4.828919 1.875 4.1875 C1.25625 4.125625 0.6375 4.06375 0 4 C0 2.68 0 1.36 0 0 Z " fill="#DDA72B" transform="translate(43,108)"/>
<path d="M0 0 C1.27875 -0.061875 2.5575 -0.12375 3.875 -0.1875 C4.95394531 -0.23970703 4.95394531 -0.23970703 6.0546875 -0.29296875 C6.69664063 -0.19628906 7.33859375 -0.09960938 8 0 C8.66 0.99 9.32 1.98 10 3 C9.01 3 8.02 3 7 3 C6.67 3.66 6.34 4.32 6 5 C3.69 5 1.38 5 -1 5 C-1.33 3.68 -1.66 2.36 -2 1 C-1.34 1 -0.68 1 0 1 C0 0.67 0 0.34 0 0 Z " fill="#442C17" transform="translate(92,66)"/>
<path d="M0 0 C0.84062397 3.09773244 1.08935201 5.78332751 1 9 C0.01 9 -0.98 9 -2 9 C-2.66 11.64 -3.32 14.28 -4 17 C-4.66 17 -5.32 17 -6 17 C-5.57664615 10.50857435 -3.08900201 5.66507011 0 0 Z " fill="#DCA528" transform="translate(19,39)"/>
<path d="M0 0 C5.86809507 0.52393706 10.54873741 1.76108858 16 4 C12.7524538 5.0825154 10.81739096 4.98903488 7.4375 4.6875 C5.98150391 4.56955078 5.98150391 4.56955078 4.49609375 4.44921875 C2 4 2 4 0 2 C0 1.34 0 0.68 0 0 Z " fill="#281810" transform="translate(56,115)"/>
<path d="M0 0 C2 4 2 4 3 7 C5.01508358 7.73323796 5.01508358 7.73323796 7 8 C7 8.66 7 9.32 7 10 C5.68 10 4.36 10 3 10 C3 9.34 3 8.68 3 8 C2.34 8 1.68 8 1 8 C1 8.66 1 9.32 1 10 C0.01 10 -0.98 10 -2 10 C-1.34 6.7 -0.68 3.4 0 0 Z " fill="#D6B691" transform="translate(79,65)"/>
<path d="M0 0 C0.99 0.66 1.98 1.32 3 2 C0.66666667 4.33333333 -1.66666667 6.66666667 -4 9 C-6 7 -6 7 -6.125 3.875 C-6.08375 2.92625 -6.0425 1.9775 -6 1 C-5.01 1.495 -5.01 1.495 -4 2 C-1.88316159 1.10836423 -1.88316159 1.10836423 0 0 Z " fill="#332116" transform="translate(54,66)"/>
<path d="M0 0 C2.27244276 0.45028588 4.54291877 0.91050617 6.8125 1.375 C8.07707031 1.63023438 9.34164062 1.88546875 10.64453125 2.1484375 C14 3 14 3 17 5 C13.7 5.33 10.4 5.66 7 6 C6.67 5.34 6.34 4.68 6 4 C4.02111039 3.27306096 2.02045442 2.60183749 0 2 C0 1.34 0 0.68 0 0 Z " fill="#7C7577" transform="translate(76,5)"/>
<path d="M0 0 C0.99 0.66 1.98 1.32 3 2 C3 2.66 3 3.32 3 4 C0.9375 5.75 0.9375 5.75 -2 7 C-5.8125 6.1875 -5.8125 6.1875 -9 5 C-6.08596738 3.05731159 -3.14191424 1.53604696 0 0 Z " fill="#412A14" transform="translate(86,112)"/>
<path d="M0 0 C1.32 0.33 2.64 0.66 4 1 C2.87895467 2.31587941 1.75303035 3.62760353 0.625 4.9375 C-0.00148438 5.66839844 -0.62796875 6.39929688 -1.2734375 7.15234375 C-3 9 -3 9 -5 10 C-5.625 8.1875 -5.625 8.1875 -6 6 C-5.34 5.01 -4.68 4.02 -4 3 C-3.01 3 -2.02 3 -1 3 C-0.67 2.01 -0.34 1.02 0 0 Z " fill="#4E4746" transform="translate(117,109)"/>
<path d="M0 0 C0.33 0 0.66 0 1 0 C1 1.65 1 3.3 1 5 C2.98 5.66 4.96 6.32 7 7 C7 7.66 7 8.32 7 9 C7.66 9.33 8.32 9.66 9 10 C3.62694301 10.35233161 3.62694301 10.35233161 1 10 C-1 8 -1 8 -2 6 C-1.34 6 -0.68 6 0 6 C0 4.02 0 2.04 0 0 Z " fill="#422B1F" transform="translate(74,80)"/>
<path d="M0 0 C0.66 0.66 1.32 1.32 2 2 C0.68 5.96 -0.64 9.92 -2 14 C-4 11 -4 11 -4 8 C-3.34 8 -2.68 8 -2 8 C-2 6.68 -2 5.36 -2 4 C-2.66 4.66 -3.32 5.32 -4 6 C-3.6875 4.125 -3.6875 4.125 -3 2 C-2.01 1.34 -1.02 0.68 0 0 Z " fill="#E2BB97" transform="translate(97,74)"/>
<path d="M0 0 C2.475 0.495 2.475 0.495 5 1 C4.34 3.97 3.68 6.94 3 10 C0 7 0 7 -0.1875 3.3125 C-0.125625 2.219375 -0.06375 1.12625 0 0 Z " fill="#2D1D12" transform="translate(73,68)"/>
<path d="M0 0 C1.35055201 2.70110402 1 5.00789006 1 8 C1.33 8.66 1.66 9.32 2 10 C1.01 11.32 0.02 12.64 -1 14 C-1.99 13.67 -2.98 13.34 -4 13 C-3.29666462 10.02277453 -2.41751463 7.14743457 -1.4375 4.25 C-1.16808594 3.45078125 -0.89867188 2.6515625 -0.62109375 1.828125 C-0.41613281 1.22484375 -0.21117188 0.6215625 0 0 Z " fill="#452F22" transform="translate(67,91)"/>
<path d="M0 0 C2 2 2 2 2.1953125 5.0390625 C2.17210937 6.22242187 2.14890625 7.40578125 2.125 8.625 C2.10695312 9.81351563 2.08890625 11.00203125 2.0703125 12.2265625 C2.04710937 13.14179687 2.02390625 14.05703125 2 15 C-1.38891215 10.91686325 -1.75039895 8.24162207 -2 3 C-1.34 2.01 -0.68 1.02 0 0 Z " fill="#3A2E29" transform="translate(132,61)"/>
<path d="M0 0 C1.134375 0.020625 2.26875 0.04125 3.4375 0.0625 C4.4375 3.0625 4.4375 3.0625 3.4375 6.0625 C2.7775 6.0625 2.1175 6.0625 1.4375 6.0625 C1.4375 5.4025 1.4375 4.7425 1.4375 4.0625 C0.1175 3.7325 -1.2025 3.4025 -2.5625 3.0625 C-2.8925 4.0525 -3.2225 5.0425 -3.5625 6.0625 C-3.94468767 4.40635343 -4.27645102 2.73792976 -4.5625 1.0625 C-3.5625 0.0625 -3.5625 0.0625 0 0 Z " fill="#DDBC92" transform="translate(50.5625,28.9375)"/>
<path d="M0 0 C1.28222189 3.03070628 0.98589446 4.03596914 -0.25 7.1875 C-2 10 -2 10 -5 11 C-5 10.34 -5 9.68 -5 9 C-5.66 9 -6.32 9 -7 9 C-6.67 7.35 -6.34 5.7 -6 4 C-5.01 4 -4.02 4 -3 4 C-2.67 4.66 -2.34 5.32 -2 6 C-1.34 4.02 -0.68 2.04 0 0 Z " fill="#EEB425" transform="translate(125,85)"/>
<path d="M0 0 C1.485 0.99 1.485 0.99 3 2 C3.1875 5.625 3.1875 5.625 3 9 C3.66 9.33 4.32 9.66 5 10 C5 11.98 5 13.96 5 16 C0.96695587 11.4169953 -0.36552401 6.03114611 0 0 Z " fill="#E6AA27" transform="translate(12,80)"/>
<path d="M0 0 C2.125 0.9375 2.125 0.9375 4 2 C4 2.33 4 2.66 4 3 C1.69 3.33 -0.62 3.66 -3 4 C-3.33 6.64 -3.66 9.28 -4 12 C-4.66 11.67 -5.32 11.34 -6 11 C-6.49046322 5.60490463 -6.49046322 5.60490463 -4.125 2.6875 C-2 1 -2 1 0 0 Z " fill="#302019" transform="translate(75,25)"/>
<path d="M0 0 C1.17539996 0.92652701 2.34010577 1.86663387 3.5 2.8125 C4.1496875 3.33457031 4.799375 3.85664063 5.46875 4.39453125 C7 6 7 6 7 9 C6.67 8.34 6.34 7.68 6 7 C5.01 7 4.02 7 3 7 C2.67 7.99 2.34 8.98 2 10 C1.01 8.68 0.02 7.36 -1 6 C-0.34 6 0.32 6 1 6 C0.67 4.02 0.34 2.04 0 0 Z " fill="#473A2E" transform="translate(110,20)"/>
<path d="M0 0 C0.66 0.33 1.32 0.66 2 1 C1.67 1.66 1.34 2.32 1 3 C0.34 3 -0.32 3 -1 3 C-0.67 4.65 -0.34 6.3 0 8 C-2.97 7.67 -5.94 7.34 -9 7 C-3.51752022 1.21293801 -3.51752022 1.21293801 0 0 Z " fill="#DFA21D" transform="translate(41,18)"/>
<path d="M0 0 C0.33 0 0.66 0 1 0 C1.59720137 5.82271337 -0.471757 9.9209404 -3 15 C-3.33 15 -3.66 15 -4 15 C-4.33 12.36 -4.66 9.72 -5 7 C-3.35 6.34 -1.7 5.68 0 5 C0 3.35 0 1.7 0 0 Z " fill="#321A07" transform="translate(16,38)"/>
<path d="M0 0 C4.75 1.875 4.75 1.875 7 3 C6.67 4.32 6.34 5.64 6 7 C6.99 7.33 7.98 7.66 9 8 C8.34 9.32 7.68 10.64 7 12 C5.83061933 10.18924982 4.66456267 8.37635257 3.5 6.5625 C2.8503125 5.55316406 2.200625 4.54382812 1.53125 3.50390625 C0 1 0 1 0 0 Z " fill="#3E250A" transform="translate(115,32)"/>
<path d="M0 0 C0 2.62113708 -0.31292445 4.50935112 -1 7 C-1.99 7 -2.98 7 -4 7 C-4.33 8.32 -4.66 9.64 -5 11 C-6.65 11.33 -8.3 11.66 -10 12 C-7.49653351 7.14032976 -3.91447559 3.72143296 0 0 Z " fill="#DDA92B" transform="translate(31,25)"/>
<path d="M0 0 C0 0.66 0 1.32 0 2 C-0.66 2 -1.32 2 -2 2 C-2 2.99 -2 3.98 -2 5 C-3.32 5.33 -4.64 5.66 -6 6 C-6 6.66 -6 7.32 -6 8 C-7.32 7.34 -8.64 6.68 -10 6 C-4.4 0 -4.4 0 0 0 Z " fill="#564E50" transform="translate(42,12)"/>
<path d="M0 0 C1.32 0 2.64 0 4 0 C4 0.66 4 1.32 4 2 C4.66 2 5.32 2 6 2 C6 1.34 6 0.68 6 0 C6.66 0 7.32 0 8 0 C8 2.64 8 5.28 8 8 C6.85073734 7.04578192 5.70569459 6.08647955 4.5625 5.125 C3.92441406 4.59132813 3.28632813 4.05765625 2.62890625 3.5078125 C1 2 1 2 0 0 Z " fill="#DDA421" transform="translate(24,108)"/>
<path d="M0 0 C3.125 -0.1875 3.125 -0.1875 6 0 C6 0.99 6 1.98 6 3 C4.68 3 3.36 3 2 3 C1.34 4.32 0.68 5.64 0 7 C-0.66 5.68 -1.32 4.36 -2 3 C-1.34 2.01 -0.68 1.02 0 0 Z " fill="#DABA98" transform="translate(92,70)"/>
<path d="M0 0 C3.63 0 7.26 0 11 0 C11 0.99 11 1.98 11 3 C7.97923697 4.00692101 6.1408885 4.39261106 3 4 C2.01 2.68 1.02 1.36 0 0 Z " fill="#DFB695" transform="translate(61,67)"/>
<path d="M0 0 C2.62655933 0.35494045 4.57968261 0.72461964 6.8125 2.1875 C8.51995571 4.79361661 8.20267097 6.9599355 8 10 C6 7 6 7 5 5 C4.01 5 3.02 5 2 5 C-0.1875 4 -0.1875 4 -2 3 C-0.68 2.67 0.64 2.34 2 2 C1.34 1.34 0.68 0.68 0 0 Z " fill="#503310" transform="translate(76,25)"/>
<path d="M0 0 C2.475 0.99 2.475 0.99 5 2 C5 1.34 5 0.68 5 0 C5.66 0 6.32 0 7 0 C6.4375 1.875 6.4375 1.875 5 4 C1.375 5.25 1.375 5.25 -2 6 C-2 3 -2 3 0 0 Z " fill="#2E2214" transform="translate(31,18)"/>
<path d="M0 0 C0.66 0 1.32 0 2 0 C3.85776765 3.13498292 4.20140476 5.37471432 4 9 C1.525 8.01 1.525 8.01 -1 7 C-0.67 4.69 -0.34 2.38 0 0 Z " fill="#261A0F" transform="translate(8,80)"/>
<path d="M0 0 C0.66 0 1.32 0 2 0 C2.33 1.32 2.66 2.64 3 4 C3.99 4 4.98 4 6 4 C6.33 6.31 6.66 8.62 7 11 C1.21538462 6.81538462 1.21538462 6.81538462 0.125 2.6875 C0.08375 1.800625 0.0425 0.91375 0 0 Z " fill="#4F4A48" transform="translate(19,107)"/>
<path d="M0 0 C-0.875 4.75 -0.875 4.75 -2 7 C-4.04119788 5.38405168 -6.04072937 3.7143618 -8 2 C-8 1.34 -8 0.68 -8 0 C-2.25 -1.125 -2.25 -1.125 0 0 Z " fill="#D6B691" transform="translate(55,105)"/>
<path d="M0 0 C0.66 0 1.32 0 2 0 C2.22197585 2.10277123 2.42713637 4.20732302 2.625 6.3125 C2.74101563 7.48425781 2.85703125 8.65601563 2.9765625 9.86328125 C3 13 3 13 1 16 C-0.50156874 12.99686252 -0.09281204 10.20932478 -0.0625 6.875 C-0.05347656 5.59367187 -0.04445312 4.31234375 -0.03515625 2.9921875 C-0.02355469 2.00476562 -0.01195312 1.01734375 0 0 Z " fill="#22170D" transform="translate(58,46)"/>
<path d="M0 0 C0.33 0 0.66 0 1 0 C1.21755666 5.4389165 1.10428384 9.87080814 -1 15 C-3.1519437 11.77208445 -3.20086443 10.71599191 -3 7 C-2.34 6.67 -1.68 6.34 -1 6 C-0.34227572 2.97065509 -0.34227572 2.97065509 0 0 Z " fill="#321D04" transform="translate(99,87)"/>
<path d="M0 0 C2 3 2 3 1.9375 5.5625 C1 8 1 8 -1.5625 9.3125 C-2.7690625 9.6528125 -2.7690625 9.6528125 -4 10 C-3.43454163 6.04179141 -2.19097652 3.3340947 0 0 Z " fill="#3A3230" transform="translate(15,35)"/>
<path d="M0 0 C0.99 0 1.98 0 3 0 C2.67 1.32 2.34 2.64 2 4 C3.65 3.67 5.3 3.34 7 3 C7 4.65 7 6.3 7 8 C6.34 8 5.68 8 5 8 C5 7.34 5 6.68 5 6 C4.01 6 3.02 6 2 6 C1.67 6.99 1.34 7.98 1 9 C0.67 6.03 0.34 3.06 0 0 Z " fill="#DCB78F" transform="translate(69,88)"/>
<path d="M0 0 C0.66 0.66 1.32 1.32 2 2 C1.9765625 4.1640625 1.9765625 4.1640625 1.625 6.625 C1.51414062 7.44226563 1.40328125 8.25953125 1.2890625 9.1015625 C1.19367188 9.72804688 1.09828125 10.35453125 1 11 C0.01 10.67 -0.98 10.34 -2 10 C-2.17942163 6.05272412 -2.09350689 3.4019487 0 0 Z " fill="#24180B" transform="translate(73,75)"/>
<path d="M0 0 C2.64465038 3.1254959 3.84414715 6.08788267 5 10 C3.35 9.67 1.7 9.34 0 9 C-0.87890625 2.84765625 -0.87890625 2.84765625 -1 1 C-0.67 0.67 -0.34 0.34 0 0 Z " fill="#42393B" transform="translate(125,38)"/>
<path d="M0 0 C0.99 0 1.98 0 3 0 C3.39036513 1.60049704 3.76178619 3.20562371 4.125 4.8125 C4.33382812 5.70582031 4.54265625 6.59914063 4.7578125 7.51953125 C5 10 5 10 3 13 C2.67 12.34 2.34 11.68 2 11 C1.34 11 0.68 11 0 11 C0.08378906 10.37351562 0.16757813 9.74703125 0.25390625 9.1015625 C0.35574219 8.28429687 0.45757812 7.46703125 0.5625 6.625 C0.66691406 5.81289062 0.77132812 5.00078125 0.87890625 4.1640625 C1.18237328 1.95100814 1.18237328 1.95100814 0 0 Z " fill="#432F20" transform="translate(93,93)"/>
<path d="M0 0 C0.66 0.66 1.32 1.32 2 2 C1.5390625 4.8203125 1.5390625 4.8203125 0.625 8.125 C0.32851562 9.22070312 0.03203125 10.31640625 -0.2734375 11.4453125 C-0.51320313 12.28835937 -0.75296875 13.13140625 -1 14 C-1.33 14 -1.66 14 -2 14 C-3.10643764 8.16605611 -3.27137992 5.23420787 0 0 Z " fill="#DFA727" transform="translate(66,29)"/>
<path d="M0 0 C0.66 0.33 1.32 0.66 2 1 C1.34 2.98 0.68 4.96 0 7 C-1.98 7 -3.96 7 -6 7 C-4.02 4.69 -2.04 2.38 0 0 Z " fill="#453E3F" transform="translate(28,20)"/>
<path d="M0 0 C1.98 0.66 3.96 1.32 6 2 C6.33 3.98 6.66 5.96 7 8 C6.34 8 5.68 8 5 8 C0 2.52380952 0 2.52380952 0 0 Z " fill="#231616" transform="translate(104,18)"/>
<path d="M0 0 C0.33 1.32 0.66 2.64 1 4 C1.66 4 2.32 4 3 4 C3 6.31 3 8.62 3 11 C2.34 11 1.68 11 1 11 C0.34 10.34 -0.32 9.68 -1 9 C-0.9765625 6.8359375 -0.9765625 6.8359375 -0.625 4.375 C-0.51414063 3.55773438 -0.40328125 2.74046875 -0.2890625 1.8984375 C-0.19367187 1.27195313 -0.09828125 0.64546875 0 0 Z " fill="#442911" transform="translate(64,43)"/>
<path d="M0 0 C3.77545388 1.09068668 6.47043472 1.9083091 9 5 C8.01 5.33 7.02 5.66 6 6 C5.67 5.34 5.34 4.68 5 4 C2.42048126 3.30906104 2.42048126 3.30906104 -0.5625 2.875 C-1.57441406 2.70742188 -2.58632812 2.53984375 -3.62890625 2.3671875 C-4.41136719 2.24601562 -5.19382812 2.12484375 -6 2 C-6 1.67 -6 1.34 -6 1 C-4.7934375 1.0309375 -4.7934375 1.0309375 -3.5625 1.0625 C-1.06645115 1.29633621 -1.06645115 1.29633621 0 0 Z " fill="#DFA520" transform="translate(94,17)"/>
<path d="M0 0 C-0.33 0.66 -0.66 1.32 -1 2 C-3.32115711 2.40961596 -5.65834501 2.73128549 -8 3 C-10.00097458 3.3274322 -12.00133314 3.65876419 -14 4 C-9.89239426 0.52433361 -5.34448487 -2.0555711 0 0 Z " fill="#979290" transform="translate(56,8)"/>
<path d="M0 0 C1.9375 0.625 1.9375 0.625 4 2 C4.75 5.125 4.75 5.125 5 8 C4.01 8.495 4.01 8.495 3 9 C3 8.34 3 7.68 3 7 C2.01 6.34 1.02 5.68 0 5 C-0.1875 2.375 -0.1875 2.375 0 0 Z " fill="#281D1D" transform="translate(10,91)"/>
<path d="M0 0 C0.33 0 0.66 0 1 0 C1.33 3.3 1.66 6.6 2 10 C0.35 10 -1.3 10 -3 10 C-2.01 6.7 -1.02 3.4 0 0 Z " fill="#36231F" transform="translate(96,82)"/>
<path d="M0 0 C0.495 0.37125 0.99 0.7425 1.5 1.125 C-1.125 2.75 -1.125 2.75 -4.5 4.125 C-7.875 3.3125 -7.875 3.3125 -10.5 2.125 C-10.5 1.795 -10.5 1.465 -10.5 1.125 C-3.11538462 -1.09038462 -3.11538462 -1.09038462 0 0 Z " fill="#DCBA93" transform="translate(84.5,111.875)"/>
<path d="M0 0 C0.66 0.66 1.32 1.32 2 2 C1.64700993 5.44165321 0.95418308 7.06872538 -1 10 C-2.25 3.375 -2.25 3.375 0 0 Z " fill="#3D3734" transform="translate(129,87)"/>
<path d="M0 0 C0.99 0 1.98 0 3 0 C2.88637738 1.4800841 2.75877092 2.95910074 2.625 4.4375 C2.52058594 5.67306641 2.52058594 5.67306641 2.4140625 6.93359375 C2.27742188 7.61550781 2.14078125 8.29742187 2 9 C1.01 9.495 1.01 9.495 0 10 C0 6.7 0 3.4 0 0 Z " fill="#D2A13A" transform="translate(61,43)"/>
<path d="M0 0 C0.66 0 1.32 0 2 0 C3.42857143 8.57142857 3.42857143 8.57142857 1 12 C0.01751476 7.9472484 -0.08159574 4.16138263 0 0 Z " fill="#2D180D" transform="translate(43,40)"/>
<path d="M0 0 C0.66 0.66 1.32 1.32 2 2 C1.9765625 4.1640625 1.9765625 4.1640625 1.625 6.625 C1.51414062 7.44226562 1.40328125 8.25953125 1.2890625 9.1015625 C1.19367188 9.72804688 1.09828125 10.35453125 1 11 C0.34 11 -0.32 11 -1 11 C-1.02688151 9.35425434 -1.04634123 7.70838587 -1.0625 6.0625 C-1.07410156 5.14597656 -1.08570312 4.22945312 -1.09765625 3.28515625 C-1 1 -1 1 0 0 Z " fill="#2B170C" transform="translate(79,42)"/>
<path d="M0 0 C1.98 0 3.96 0 6 0 C5.34 1.65 4.68 3.3 4 5 C3.67 4.34 3.34 3.68 3 3 C2.34 3 1.68 3 1 3 C1 3.66 1 4.32 1 5 C0.34 5 -0.32 5 -1 5 C-0.67 3.35 -0.34 1.7 0 0 Z " fill="#D7B79A" transform="translate(72,29)"/>
<path d="M0 0 C2.97 0.495 2.97 0.495 6 1 C6.33 2.65 6.66 4.3 7 6 C2.32307692 4.52307692 2.32307692 4.52307692 0.6875 1.875 C0.460625 1.25625 0.23375 0.6375 0 0 Z " fill="#E1A524" transform="translate(33,115)"/>
<path d="M0 0 C3 3.625 3 3.625 3 7 C2.34 7 1.68 7 1 7 C1 7.66 1 8.32 1 9 C0.34 9 -0.32 9 -1 9 C-2.25541557 5.23375329 -1.37061958 3.62811066 0 0 Z " fill="#3C291C" transform="translate(84,78)"/>
<path d="M0 0 C0 1.98 0 3.96 0 6 C-1.32 6.33 -2.64 6.66 -4 7 C-4.33 5.35 -4.66 3.7 -5 2 C-1.125 0 -1.125 0 0 0 Z " fill="#F0C599" transform="translate(78,30)"/>
<path d="M0 0 C2.94982021 1.14186589 4.88437775 2.67281553 7 5 C6.01 5.33 5.02 5.66 4 6 C4 5.34 4 4.68 4 4 C1.03 3.505 1.03 3.505 -2 3 C-2 2.34 -2 1.68 -2 1 C-1.34 0.67 -0.68 0.34 0 0 Z " fill="#201613" transform="translate(92,11)"/>
<path d="M0 0 C0.66 0.33 1.32 0.66 2 1 C2 1.66 2 2.32 2 3 C2.66 3.33 3.32 3.66 4 4 C2.02 4.99 2.02 4.99 0 6 C0 5.34 0 4.68 0 4 C-0.99 4 -1.98 4 -3 4 C-3 3.34 -3 2.68 -3 2 C-2.01 1.34 -1.02 0.68 0 0 Z " fill="#F4AD07" transform="translate(47,115)"/>
<path d="M0 0 C0 2.31 0 4.62 0 7 C-0.33 6.34 -0.66 5.68 -1 5 C-1.66 5 -2.32 5 -3 5 C-3.33 6.32 -3.66 7.64 -4 9 C-4.368 3.48 -4.368 3.48 -2.5625 1.125 C-1 0 -1 0 0 0 Z " fill="#D29D1A" transform="translate(98,105)"/>
<path d="M0 0 C2.09749995 2.35968744 2.96905704 3.54616994 3.1875 6.75 C3.125625 7.4925 3.06375 8.235 3 9 C2.01 9 1.02 9 0 9 C-1.125 3.375 -1.125 3.375 0 0 Z " fill="#D9B896" transform="translate(89,76)"/>
<path d="M0 0 C0.33 1.65 0.66 3.3 1 5 C-0.32 5.33 -1.64 5.66 -3 6 C-3.33 4.35 -3.66 2.7 -4 1 C-2 0 -2 0 0 0 Z " fill="#D2B699" transform="translate(71,81)"/>
<path d="M0 0 C3.93673644 1.31224548 6.22719294 2.91910327 9 6 C8.01 6.495 8.01 6.495 7 7 C7 6.34 7 5.68 7 5 C5.68 4.67 4.36 4.34 3 4 C2.67 4.66 2.34 5.32 2 6 C1.34 4.02 0.68 2.04 0 0 Z " fill="#6E6760" transform="translate(101,14)"/>
<path d="M0 0 C0.66 0.66 1.32 1.32 2 2 C-4.625 3.25 -4.625 3.25 -8 1 C-5.23749964 -0.38125018 -3.05268901 -0.19079306 0 0 Z " fill="#3D3532" transform="translate(96,127)"/>
<path d="M0 0 C0.33 0.66 0.66 1.32 1 2 C0.34 2 -0.32 2 -1 2 C-0.67 2.99 -0.34 3.98 0 5 C-1.65 5.33 -3.3 5.66 -5 6 C-5.33 5.34 -5.66 4.68 -6 4 C-4.02 2.68 -2.04 1.36 0 0 Z " fill="#422B0F" transform="translate(105,117)"/>
<path d="M0 0 C0.33 0.66 0.66 1.32 1 2 C1.66 2 2.32 2 3 2 C3.33 1.34 3.66 0.68 4 0 C4 1.65 4 3.3 4 5 C1.36 4.34 -1.28 3.68 -4 3 C-3 1 -3 1 0 0 Z " fill="#211008" transform="translate(82,85)"/>
<path d="M0 0 C0.66 0.33 1.32 0.66 2 1 C2 4 2 4 0 6.1875 C-0.66 6.785625 -1.32 7.38375 -2 8 C-1.125 1.125 -1.125 1.125 0 0 Z " fill="#F1CAA2" transform="translate(50,74)"/>
<path d="M0 0 C0.99 0.33 1.98 0.66 3 1 C2.34 3.31 1.68 5.62 1 8 C0.34 7.34 -0.32 6.68 -1 6 C-0.625 2.875 -0.625 2.875 0 0 Z " fill="#EFAF08" transform="translate(39,72)"/>
<path d="M0 0 C1.32 0.33 2.64 0.66 4 1 C4 1.99 4 2.98 4 4 C1.69 4 -0.62 4 -3 4 C-2.01 2.68 -1.02 1.36 0 0 Z " fill="#3A220D" transform="translate(85,58)"/>
<path d="M0 0 C2.29633824 3.44450737 2.54016485 5.93812283 3 10 C1.68 9.34 0.36 8.68 -1 8 C-0.67 5.36 -0.34 2.72 0 0 Z " fill="#D59D26" transform="translate(124,48)"/>
<path d="M0 0 C0.33 0 0.66 0 1 0 C1.17835515 4.54805635 0.99785435 7.8794254 -1 12 C-1.33 12 -1.66 12 -2 12 C-1.85904936 10.3745692 -1.71207913 8.74965949 -1.5625 7.125 C-1.48128906 6.22007813 -1.40007812 5.31515625 -1.31640625 4.3828125 C-1 2 -1 2 0 0 Z " fill="#E3AD2A" transform="translate(82,44)"/>
<path d="M0 0 C6.75 -0.125 6.75 -0.125 9 1 C9 1.66 9 2.32 9 3 C2.25 2.25 2.25 2.25 0 0 Z " fill="#605759" transform="translate(46,130)"/>
<path d="M0 0 C1.5625 1.1875 1.5625 1.1875 3 3 C2.6875 5.6875 2.6875 5.6875 2 8 C1.01 7.67 0.02 7.34 -1 7 C-0.67 4.69 -0.34 2.38 0 0 Z " fill="#E8A919" transform="translate(114,32)"/>
<path d="M0 0 C1.32 0 2.64 0 4 0 C4 1.32 4 2.64 4 4 C2.35 3.67 0.7 3.34 -1 3 C-0.67 2.01 -0.34 1.02 0 0 Z " fill="#403D3E" transform="translate(42,126)"/>
<path d="M0 0 C0.99 0 1.98 0 3 0 C2.34 2.97 1.68 5.94 1 9 C0.67 9 0.34 9 0 9 C0 6.03 0 3.06 0 0 Z " fill="#32251D" transform="translate(42,79)"/>
<path d="M0 0 C0.99 0.33 1.98 0.66 3 1 C3.33 2.65 3.66 4.3 4 6 C3.01 6.66 2.02 7.32 1 8 C-0.35439668 5.29120665 -0.06501451 2.99066732 0 0 Z " fill="#4B3C2F" transform="translate(48,67)"/>
<path d="M0 0 C2.475 0.495 2.475 0.495 5 1 C4.67 1.99 4.34 2.98 4 4 C3.01 4 2.02 4 1 4 C0.67 2.68 0.34 1.36 0 0 Z " fill="#402E24" transform="translate(73,68)"/>
<path d="M0 0 C0.66 0 1.32 0 2 0 C3.35439668 2.70879335 3.06501451 5.00933268 3 8 C1.5 6.8125 1.5 6.8125 0 5 C-0.1875 2.3125 -0.1875 2.3125 0 0 Z " fill="#EFC8A2" transform="translate(80,64)"/>
<path d="M0 0 C1.61949011 2.57213134 2.04408751 3.67669159 1.625 6.75 C1.41875 7.4925 1.2125 8.235 1 9 C0.34 8.34 -0.32 7.68 -1 7 C-0.625 3.375 -0.625 3.375 0 0 Z " fill="#372D2F" transform="translate(130,49)"/>
<path d="M0 0 C0.66 0.33 1.32 0.66 2 1 C2 1.99 2 2.98 2 4 C-1 6 -1 6 -3 6 C-2.42655063 3.13275314 -2.1385485 2.1385485 0 0 Z " fill="#5A370A" transform="translate(45,25)"/>
<path d="M0 0 C2.625 0.9375 2.625 0.9375 5 2 C5 2.66 5 3.32 5 4 C2.69 3.67 0.38 3.34 -2 3 C-2 2.34 -2 1.68 -2 1 C-1.34 0.67 -0.68 0.34 0 0 Z " fill="#231810" transform="translate(78,7)"/>
</svg>
